<svg xmlns="http://www.w3.org/2000/svg"><defs><font id="Abel-Regular" horiz-adv-x="930"><font-face font-family="Abel" font-weight="400" units-per-em="2048" panose-1="2 0 5 6 3 0 0 2 0 4" ascent="1638" descent="-410" x-height="1024" cap-height="1434" bbox="-102 -604 1946 2005" underline-thickness="82" underline-position="-410" unicode-range="U+0020-F6C3"/><glyph glyph-name=".notdef" horiz-adv-x="2048"/><glyph glyph-name=".null" horiz-adv-x="0"/><glyph glyph-name="nonmarkingreturn" horiz-adv-x="471"/><glyph glyph-name="space" horiz-adv-x="471"/><glyph glyph-name="exclam" unicode="!" horiz-adv-x="428" d="M250 434h-72l-55 1000h182zM137 0v154h154V0H137z"/><glyph glyph-name="quotedbl" unicode="&quot;" horiz-adv-x="645" d="M225 993h-51l-51 441h153zm246 0h-51l-51 441h153z"/><glyph glyph-name="numbersign" unicode="#" horiz-adv-x="1311" d="M164 1069h235l31 365h121l-31-365h332l31 365h121l-31-365h215V967H963l-41-500h225V365H911L881 0H760l31 365H459L428 0H307l31 365H123v102h225l41 500H164v102zm305-602h332l41 500H510z"/><glyph glyph-name="dollar" unicode="$" horiz-adv-x="1063" d="M492-246v226q-72 1-136 28.5t-111 75T170.5 195 143 332v57l129 21v-78q0-47 17-88t47-72 70-49.5 86-20.5v582q-66 24-128.5 52.5T252 809t-79 108-30 158v27q0 72 27.5 135.5T245 1349t111 76 136 29v184h102v-184q71-1 134-29.5t110-76 74.5-111T940 1102v-37l-129-21v58q0 46-17 87t-46 71.5-69 49.5-85 21V776q65-25 129-55t114.5-75T919 535.5 950 375v-43q0-73-27.5-137T847 83 735 7.5 598-20h-4v-226H492zm329 621q0 57-18 99.5t-48.5 74-72 54.5-88.5 42V102q47 0 88.5 18t72 49.5 48.5 73 18 89.5v43zm-549 700q0-53 17-92.5t47-69.5 70-53 86-43v514q-46-2-86-21t-70-49.5-47-71.5-17-87v-27z"/><glyph glyph-name="percent" unicode="%" horiz-adv-x="1382" d="M528 915q0-36-13.5-68.5T477 790t-56.5-38.5T350 737h-28q-38 0-70.5 14.5T195 790t-38 56.5-14 68.5v349q0 36 14 68.5t38 56.5 56.5 38.5T322 1442h28q38 0 70.5-14.5T477 1389t37.5-56.5T528 1264V915zm-98 349q0 17-6.5 32t-18 26-26.5 17.5-33 6.5h-20q-18 0-33-6.5t-26.5-17.5-18-26-6.5-32V915q0-34 24.5-57.5T326 834h20q35 0 59.5 23.5T430 915v349zm809-1094q0-36-13.5-68.5T1188 45t-56.5-38.5T1061-8h-29q-37 0-69.5 14.5T906 45t-38 56.5-14 68.5v348q0 36 14 68.5t38 56.5 56.5 38.5T1032 696h29q38 0 70.5-14.5T1188 643t37.5-56.5T1239 518V170zm-98 348q0 17-6.5 32t-18 26-26.5 17.5-33 6.5h-21q-18 0-33-6.5T976.5 576t-18-26-6.5-32V170q0-17 6.5-32t18-26 26.5-17.5 33-6.5h21q18 0 33 6.5t26.5 17.5 18 26 6.5 32v348zM225 0l817 1434h115L340 0H225z"/><glyph glyph-name="ampersand" unicode="&amp;" horiz-adv-x="1272" d="M1092-20q-87 0-151.5 37T838 117Q788 54 715 17T557-20h-61q-73 0-137.5 27.5T246 83t-75.5 112T143 332v78q0 51 13.5 97.5T195 594t59 72.5 76 54.5q-42 22-76 54.5T195 848t-38.5 86.5T143 1032v70q0 73 27.5 137t75.5 112 112.5 75.5T496 1454h61q73 0 137-27.5t112-75.5 75.5-112 27.5-137v-10l-129-21v31q0 48-18 89.5t-49 72.5-72.5 49-89.5 18h-49q-48 0-89.5-18t-73-49-49.5-72.5-18-89.5v-90q0-48 18-89.5t49.5-73 73-49.5 89.5-18h278v131l129 21V784h199V662H909V317q2-45 14-84t35.5-68.5 58.5-46 81-16.5h30l-18-122h-18zM551 102q46 0 87 17t71.5 47 49.5 70 21 86v337H502q-48 0-89.5-18t-73-49-49.5-72.5-18-89.5v-98q0-48 18-89.5t49.5-73 73-49.5 89.5-18h49z"/><glyph glyph-name="quotesingle" unicode="'" horiz-adv-x="399" d="M195 993h-52v441h154z"/><glyph glyph-name="parenleft" unicode="(" horiz-adv-x="684" d="M123 598q0 167 32 311t89 268.5 135.5 231T551 1606l72-72q-82-85-151.5-188T352 1124.5 274 874t-28-276 28-276 78-250.5T471.5-150 623-338l-72-72q-93 91-171.5 197.5T244 19t-89 269-32 310z"/><glyph glyph-name="parenright" unicode=")" horiz-adv-x="684" d="M561 598q0-166-32-310T440 19 304.5-212.5 133-410l-72 72q83 85 152 188T332 71.5 410 322t28 276-28 276-78 250.5T213 1346 61 1534l72 72q93-91 171.5-197.5t135.5-231T529 909t32-311z"/><glyph glyph-name="asterisk" unicode="*" horiz-adv-x="993" d="M498 973L326 686l-119 86 221 250-326 74 45 137 308-131-31 332h145l-30-332 307 131 45-137-326-74 221-250-118-86z"/><glyph glyph-name="plus" unicode="+" horiz-adv-x="1188" d="M82 782h446v447h129V782h449V653H657V205H528v448H82v129z"/><glyph glyph-name="comma" unicode="," horiz-adv-x="440" d="M195-287h-52v441h154z"/><glyph glyph-name="hyphen" unicode="-" horiz-adv-x="588" d="M102 627v116h383V627H102z"/><glyph glyph-name="period" unicode="." horiz-adv-x="440" d="M143 0v154h154V0H143z"/><glyph glyph-name="slash" unicode="/" horiz-adv-x="782" d="M41-123l571 1679h129L170-123H41z"/><glyph glyph-name="zero" unicode="0" horiz-adv-x="1053" d="M909 332q0-73-27.5-137T806 83 694 7.5 557-20h-61q-73 0-137.5 27.5T246 83t-75.5 112T143 332v770q0 73 27.5 137t75.5 112 112.5 75.5T496 1454h61q73 0 137-27.5t112-75.5 75.5-112 27.5-137V332zm-129 770q0 48-18 89.5t-49 72.5-72.5 49-89.5 18h-49q-48 0-89.5-18t-73-49-49.5-72.5-18-89.5V332q0-48 18-89.5t49.5-73 73-49.5 89.5-18h49q48 0 89.5 18t72.5 49.5 49 73 18 89.5v770z"/><glyph glyph-name="one" unicode="1" horiz-adv-x="1059" d="M164 0v123h342v1188l-342-144v123l342 144h129V123h342V0H164z"/><glyph glyph-name="two" unicode="2" horiz-adv-x="1012" d="M471 1331q-48 0-89.5-18t-72.5-49-49-72.5-18-89.5v-58l-129 21v37q0 73 27.5 137t75.5 112 112 75.5 137 27.5h61q73 0 137.5-26t112.5-75 75.5-117.5T879 1081q0-85-25.5-171t-67-169-95-161T582 433Q451 272 285 123h604V0H82v102q187 154 334 319 63 71 123 151t107 164.5 75.5 172T750 1081q0 63-19 110t-51 78-73.5 46.5T520 1331h-49z"/><glyph glyph-name="three" unicode="3" horiz-adv-x="1053" d="M909 332q0-73-27.5-137T806 83 694 7.5 557-20h-61q-73 0-137.5 27.5T246 83t-75.5 112T143 332v37l129 20v-57q0-48 18-89.5t49.5-73 73-49.5 89.5-18h49q48 0 89.5 18t72.5 49.5 49 73 18 89.5v119q0 48-18 89.5T713 613t-72.5 49-89.5 18h-96v123h96q48 0 89.5 18t72.5 49 49 72.5 18 89.5v70q0 48-18 89.5t-49 72.5-72.5 49-89.5 18h-49q-48 0-89.5-18t-73-49-49.5-72.5-18-89.5v-58l-129 21v37q0 73 27.5 137t75.5 112 112.5 75.5T496 1454h61q73 0 137-27.5t112-75.5 75.5-112 27.5-137v-49q0-51-13.5-97.5t-38-86.5-58.5-72.5-76-55.5q42-22 76-54.5t58.5-72.5 38-86.5T909 430v-98z"/><glyph glyph-name="four" unicode="4" horiz-adv-x="1032" d="M766 248V0H637v248H61v61l637 1125h68V371h123V248H766zm-129 833L242 371h395v710z"/><glyph glyph-name="five" unicode="5" horiz-adv-x="1053" d="M909 332q0-73-27.5-137T806 83 694 7.5 557-20h-61q-73 0-137.5 27.5T246 83t-75.5 112T143 332v22h129v-22q0-48 18-89.5t49.5-73 73-49.5 89.5-18h49q48 0 89.5 18t72.5 49.5 49 73 18 89.5v278q0 48-18 89.5t-49 73-72.5 49.5-89.5 18h-49q-48 0-89.5-18t-73-49.5-49.5-73-18-89.5H143l82 824h613v-123H346l-47-441q46 44 107 68.5T537 963h20q73 0 137-27.5T806 860t75.5-112.5T909 610V332z"/><glyph glyph-name="six" unicode="6" horiz-adv-x="1053" d="M930 332q0-73-27.5-137T827 83 715 7.5 578-20h-62q-73 0-137 27.5T267 83t-75.5 112T164 332v770q0 73 27.5 137t75.5 112 112 75.5 137 27.5h62q73 0 137-27.5t112-75.5 75.5-112 27.5-137v-37l-129-21v58q0 48-18 89.5t-49.5 72.5-73 49-89.5 18h-49q-48 0-89.5-18t-72.5-49-49-72.5-18-89.5V745q49 54 117.5 86.5T557 864h21q73 0 137-27.5T827 761t75.5-112T930 512V332zM801 512q0 48-18 89.5T733.5 674t-73 49-89.5 18h-49q-48 0-89.5-18T360 674t-49-72.5-18-89.5V332q0-48 18-89.5t49-73 72.5-49.5 89.5-18h49q48 0 89.5 18t73 49.5 49.5 73 18 89.5v180z"/><glyph glyph-name="seven" unicode="7" horiz-adv-x="1053" d="M389 0H254l537 1311H293v-191H164v314h786v-62z"/><glyph glyph-name="eight" unicode="8" horiz-adv-x="1053" d="M909 332q0-73-27.5-137T806 83 694 7.5 557-20h-61q-73 0-137.5 27.5T246 83t-75.5 112T143 332v119q0 91 42.5 166.5T297 741q-69 48-111.5 124T143 1032v70q0 73 27.5 137t75.5 112 112.5 75.5T496 1454h61q73 0 137-27.5t112-75.5 75.5-112 27.5-137v-70q0-91-42-167T756 741q69-48 111-123.5T909 451V332zm-129 770q0 48-18 89.5t-49 72.5-72.5 49-89.5 18h-49q-48 0-89.5-18t-73-49-49.5-72.5-18-89.5v-70q0-48 18-89.5t49.5-72.5 73-49 89.5-18h49q48 0 89.5 18t72.5 49 49 72.5 18 89.5v70zm0-651q0 48-18 89.5T713 613t-72.5 49-89.5 18h-49q-48 0-89.5-18t-73-49-49.5-72.5-18-89.5V332q0-48 18-89.5t49.5-73 73-49.5 89.5-18h49q48 0 89.5 18t72.5 49.5 49 73 18 89.5v119z"/><glyph glyph-name="nine" unicode="9" horiz-adv-x="1053" d="M930 332q0-73-27.5-137T827 83 715 7.5 578-20h-62q-73 0-137 27.5T267 83t-75.5 112T164 332v37l129 20v-57q0-48 18-89.5t49-73 72.5-49.5 89.5-18h49q48 0 89.5 18t73 49.5 49.5 73 18 89.5v356q-50-54-118-86.5T537 569h-21q-73 0-137 27.5T267 672t-75.5 112.5T164 922v180q0 73 27.5 137t75.5 112 112 75.5 137 27.5h62q73 0 137-27.5t112-75.5 75.5-112 27.5-137V332zm-129 770q0 48-18 89.5t-49.5 72.5-73 49-89.5 18h-49q-48 0-89.5-18t-72.5-49-49-72.5-18-89.5V922q0-48 18-89.5t49-73 72.5-49.5 89.5-18h49q48 0 89.5 18t73 49.5 49.5 73 18 89.5v180z"/><glyph glyph-name="colon" unicode=":" horiz-adv-x="440" d="M143 870v154h154V870H143zm0-870v154h154V0H143z"/><glyph glyph-name="semicolon" unicode=";" horiz-adv-x="440" d="M143 870v154h154V870H143zm52-1157h-52v441h154z"/><glyph glyph-name="less" unicode="&lt;" horiz-adv-x="1249" d="M1126 1247v-141L248 717l878-387V188L102 645v146z"/><glyph glyph-name="equal" unicode="=" horiz-adv-x="1352" d="M1188 973V844H164v129h1024zm0-381V463H164v129h1024z"/><glyph glyph-name="greater" unicode="&gt;" horiz-adv-x="1249" d="M999 717l-876 389v141l1024-456V645L123 188v142z"/><glyph glyph-name="question" unicode="?" horiz-adv-x="950" d="M332 0v154h153V0H332zm141 434H344v39q0 66 16 115t42.5 86 60 66 69 55.5 69 53.5 60 60 42.5 75 16 99v19q0 48-18 89.5t-49.5 72.5-73 49-89.5 18h-28q-48 0-89.5-18t-73-49-49.5-72.5-18-89.5v-58l-129 21v37q0 73 27.5 137t75.5 112 112.5 75.5T455 1454h41q73 0 137-27.5t112-75.5 75.5-112 27.5-137v-19q0-69-16-121t-42.5-92-60-71-69-58-69-53-60-57-42.5-69-16-89v-39z"/><glyph glyph-name="at" unicode="@" horiz-adv-x="2046" d="M1305 254q-14-100 25.5-147.5T1454 59q61 0 119 44t103 122.5 72.5 187T1776 649q0 147-43.5 273t-126 217.5-203 143.5-275.5 52q-123 0-234-35t-206.5-98T515 1051.5 383.5 858t-84-226T270 383q0-147 40-274t119-220.5T624.5-258 895-311q56 0 109.5 7.5T1106-284t88.5 28 69.5 33l41-94q-48-29-102-50.5T1093.5-403t-110-20.5T879-430q-177 0-314 61T334.5-201 192 51.5 143 367q0 146 35 283.5T277.5 909 433 1130t202 172 240 112 270 40q177 0 317.5-60t238.5-165.5T1851 979t52-313q0-81-13-165.5T1851 336t-65-150-91.5-123T1576-20.5 1430-51q-55 0-96 12t-71.5 32.5-52 49T1174 104q-51-57-119-90.5T911-20h-30q-57 0-104.5 20t-82 54.5-54 81.5T621 238v21.5l2 21.5 63 462q9 62 40.5 117t78.5 96 105.5 64.5T1030 1044h31q75 0 134-33.5t91-90.5l84 104h41zm-562 20q0-6-1-12t-1-12q0-33 11.5-61t32.5-49 49.5-32.5T897 96h82q37 0 71 14t61.5 38 46 56.5T1182 274l67 476q2 6 2 13v13q0 32-11.5 60t-32 48.5-49 32T1096 928h-82q-37 0-71.5-14t-62-38-46-56.5T811 750z"/><glyph glyph-name="A" unicode="A" horiz-adv-x="950" d="M702 334H248L154 0H20l420 1434h68L930 0H797zM283 457h385l-189 661-4 53-4-53z"/><glyph glyph-name="B" unicode="B" horiz-adv-x="1053" d="M971 352q0-73-27.5-137T868 103 755.5 27.5 618 0H164v1434h454q73 0 137.5-27.5T868 1331t75.5-112.5T971 1081v-14q0-51-13.5-97.5T919 883t-59-72.5-76-54.5q42-22 76-54.5t59-73 38.5-87T971 444v-92zM842 465q0 48-18 89.5T774.5 627t-73 49-89.5 18H293V123h319q48 0 89.5 18t73 49 49.5 72.5 18 89.5v113zm0 616q0 48-18 89.5t-49.5 73-73 49.5-89.5 18H293V817h319q48 0 89.5 18t73 49.5 49.5 73 18 89.5v34z"/><glyph glyph-name="C" unicode="C" horiz-adv-x="1073" d="M950 332q0-73-27.5-137T847 83 735 7.5 598-20H496q-73 0-137.5 27.5T246 83t-75.5 112T143 332v770q0 73 27.5 137t75.5 112 112.5 75.5T496 1454h102q73 0 137-27.5t112-75.5 75.5-112 27.5-137v-58l-129-20v78q0 48-18 89.5t-49 72.5-72.5 49-89.5 18h-90q-48 0-89.5-18t-73-49-49.5-72.5-18-89.5V332q0-48 18-89.5t49.5-73 73-49.5 89.5-18h90q48 0 89.5 18t72.5 49.5 49 73 18 89.5v78l129-21v-57z"/><glyph glyph-name="D" unicode="D" horiz-adv-x="1114" d="M971 352q0-73-27.5-137T868 103 755.5 27.5 618 0H164v1434h454q73 0 137.5-27.5T868 1331t75.5-112.5T971 1081V352zm-129 729q0 48-18 89.5t-49.5 73-73 49.5-89.5 18H293V123h319q48 0 89.5 18t73 49 49.5 72.5 18 89.5v729z"/><glyph glyph-name="E" unicode="E" horiz-adv-x="1053" d="M164 0v1434h807v-123H293V778h549V655H293V123h678V0H164z"/><glyph glyph-name="F" unicode="F" horiz-adv-x="1012" d="M293 1311V778h549V655H293V0H164v1434h807v-123H293z"/><glyph glyph-name="G" unicode="G" horiz-adv-x="1094" d="M950 0h-41l-75 115q-47-62-114-98.5T571-20h-75q-73 0-137.5 27.5T246 83t-75.5 112T143 332v770q0 73 27.5 137t75.5 112 112.5 75.5T496 1454h102q73 0 137-27.5t112-75.5 75.5-112 27.5-137v-58l-129-20v78q0 48-18 89.5t-49 72.5-72.5 49-89.5 18h-90q-48 0-89.5-18t-73-49-49.5-72.5-18-89.5V332q0-48 18-89.5t49.5-73 73-49.5 89.5-18h90q48 0 89.5 18t72.5 49.5 49 73 18 89.5v299H592v123h358V0z"/><glyph glyph-name="H" unicode="H" horiz-adv-x="1135" d="M842 0v655H293V0H164v1434h129V778h549v656h129V0H842z"/><glyph glyph-name="I" unicode="I" horiz-adv-x="457" d="M164 0v1434h129V0H164z"/><glyph glyph-name="J" unicode="J" d="M807 332q0-73-27.5-137T704 83 592 7.5 455-20h-41q-73 0-137.5 27.5T164 83 88.5 195 61 332v57l129 21v-78q0-48 18-89.5t49.5-73 73-49.5 89.5-18h29q47 0 89 18t73 49.5 49 73 18 89.5v1102h129V332z"/><glyph glyph-name="K" unicode="K" horiz-adv-x="1065" d="M864 0L324 717l540 717h160L473 717 1024 0H864zM164 0v1434h129V0H164z"/><glyph glyph-name="L" unicode="L" horiz-adv-x="862" d="M143 0v1434h129V123h549V0H143z"/><glyph glyph-name="M" unicode="M" horiz-adv-x="1339" d="M1047 0v983l-9-61L705 0h-68L301 922l-8 61V0H164v1434h67L666 258l4-53 4 53 434 1176h68V0h-129z"/><glyph glyph-name="N" unicode="N" horiz-adv-x="1135" d="M903 0L305 1044l-12 62V0H164v1434h67L829 389l13-61v1106h129V0h-68z"/><glyph glyph-name="O" unicode="O" horiz-adv-x="1094" d="M950 332q0-73-27.5-137T847 83 735 7.5 598-20H496q-73 0-137.5 27.5T246 83t-75.5 112T143 332v770q0 73 27.5 137t75.5 112 112.5 75.5T496 1454h102q73 0 137-27.5t112-75.5 75.5-112 27.5-137V332zm-129 770q0 48-18 89.5t-49 72.5-72.5 49-89.5 18h-90q-48 0-89.5-18t-73-49-49.5-72.5-18-89.5V332q0-48 18-89.5t49.5-73 73-49.5 89.5-18h90q48 0 89.5 18t72.5 49.5 49 73 18 89.5v770z"/><glyph glyph-name="P" unicode="P" horiz-adv-x="1053" d="M971 903q0-73-27.5-137T868 654t-112.5-75.5T618 551H293V0H164v1434h454q73 0 137.5-27.5T868 1331t75.5-112.5T971 1081V903zm-129 178q0 48-18 89.5t-49.5 73-73 49.5-89.5 18H293V674h319q48 0 89.5 18t73 49 49.5 72.5 18 89.5v178z"/><glyph glyph-name="Q" unicode="Q" horiz-adv-x="1094" d="M950 332q0-70-25-132T856 91 752.5 14.5 625-20l131-295H627L496-20q-73 0-137.5 27.5T246 83t-75.5 112T143 332v770q0 73 27.5 137t75.5 112 112.5 75.5T496 1454h102q73 0 137-27.5t112-75.5 75.5-112 27.5-137V332zm-129 770q0 48-18 89.5t-49 72.5-72.5 49-89.5 18h-90q-48 0-89.5-18t-73-49-49.5-72.5-18-89.5V332q0-48 18-89.5t49.5-73 73-49.5 89.5-18h90q48 0 89.5 18t72.5 49.5 49 73 18 89.5v770z"/><glyph glyph-name="R" unicode="R" horiz-adv-x="1069" d="M838 0L449 612H272V0H143v1434h455q73 0 137-27.5t112-75.5 75.5-112.5T950 1081V965q0-73-27.5-137.5T847 715t-112-75.5T598 612L987 0H838zm-17 1081q0 48-18 89.5t-49 73-72.5 49.5-89.5 18H272V735h320q48 0 89.5 18t72.5 49.5 49 73 18 89.5v116z"/><glyph glyph-name="S" unicode="S" horiz-adv-x="1063" d="M950 332q0-73-29.5-137t-79-112-115-75.5T588-20H485q-73 0-138.5 27.5T231.5 83t-79 112T123 332v57l129 21v-78q0-48 19.5-89.5t52.5-73 76.5-49.5 91.5-18h90q48 0 91 18t76 49.5 52.5 73T821 332v43q0 74-29 123t-77 83.5T606.5 640 482 688t-124.5 53T249 813.5 172 920t-29 155v27q0 73 27.5 137t75.5 112 112.5 75.5T496 1454h92q73 0 137-27.5t112-75.5 75.5-112 27.5-137v-37l-129-21v58q0 48-18 89.5t-49 72.5-72.5 49-89.5 18h-80q-48 0-89.5-18t-73-49-49.5-72.5-18-89.5v-27q0-69 29-116t77-80.5 108.5-58 124.5-50 124.5-56 108.5-75T921 531t29-156v-43z"/><glyph glyph-name="T" unicode="T" horiz-adv-x="895" d="M512 1311V0H383v1311H41v123h813v-123H512z"/><glyph glyph-name="U" unicode="U" horiz-adv-x="1094" d="M950 332q0-73-27.5-137T847 83 735 7.5 598-20H496q-73 0-137.5 27.5T246 83t-75.5 112T143 332v1102h129V332q0-48 18-89.5t49.5-73 73-49.5 89.5-18h90q48 0 89.5 18t72.5 49.5 49 73 18 89.5v1102h129V332z"/><glyph glyph-name="V" unicode="V" horiz-adv-x="950" d="M471 315l4-53 4 53 318 1119h133L508 0h-68L20 1434h134z"/><glyph glyph-name="W" unicode="W" horiz-adv-x="1542" d="M1122 0h-67L776 1079l-4 56-6-56L489 0h-67L41 1434h129L451 344l4-53 4 53 276 1090h72l276-1090 4-53 5 53 280 1090h129z"/><glyph glyph-name="X" unicode="X" horiz-adv-x="991" d="M791 0L496 596 201 0H61l365 737-344 697h139l275-555 274 555h139L565 737 930 0H791z"/><glyph glyph-name="Y" unicode="Y" horiz-adv-x="950" d="M541 686V0H412v684L41 1434h139l295-596 295 596h139z"/><glyph glyph-name="Z" unicode="Z" horiz-adv-x="971" d="M82 0v61l639 1250H102v123h787v-62L250 123h639V0H82z"/><glyph glyph-name="bracketleft" unicode="[" horiz-adv-x="633" d="M530-410H164v2016h366v-111H287V-299h243v-111z"/><glyph glyph-name="backslash" unicode="\" horiz-adv-x="782" d="M612-123L41 1556h129L741-123H612z"/><glyph glyph-name="bracketright" unicode="]" horiz-adv-x="633" d="M102-299h244v1794H102v111h367V-410H102v111z"/><glyph glyph-name="asciicircum" unicode="^" horiz-adv-x="1104" d="M981 776H844l-293 539-291-539H123l360 658h138z"/><glyph glyph-name="underscore" unicode="_" horiz-adv-x="1122" d="M1124-293v-117H-2v117h1126z"/><glyph glyph-name="grave" unicode="`" horiz-adv-x="778" d="M205 1434h205l163-246h-92z"/><glyph glyph-name="a" unicode="a" d="M766 0l-68 102q-42-55-105-88.5T455-20h-31q-62 0-117 23.5T211 68t-64.5 96T123 281v10q0 62 23.5 117t64.5 96 96 64.5T424 592h260v158q0 37-14 69.5T632 876t-56.5 38-69.5 14h-72q-37 0-69.5-14T308 876t-38-56.5-14-69.5v-37l-123 20v10q0 62 23.5 117t64.5 96 96 64.5 117 23.5h72q62 0 117-23.5t96-64.5 64.5-96T807 743V0h-41zm-82 496H424q-37 0-69.5-14T298 443.5t-38-57-14-69.5v-43q0-37 14-69.5t38-56.5 56.5-38T424 96h82q37 0 69.5 14t56.5 38 38 56.5 14 69.5v222z"/><glyph glyph-name="b" unicode="b" d="M807 281q0-62-23.5-117T719 68 623 3.5 506-20h-82q-62 0-117 23.5T211 68t-64.5 96T123 281v1153h123V938q42 50 101 78t128 28h31q62 0 117-23.5t96-64.5 64.5-96T807 743V281zM684 750q0 37-14 69.5T632 876t-56.5 38-69.5 14h-82q-37 0-69.5-14T298 876t-38-56.5-14-69.5V274q0-37 14-69.5t38-56.5 56.5-38T424 96h82q37 0 69.5 14t56.5 38 38 56.5 14 69.5v476z"/><glyph glyph-name="c" unicode="c" d="M807 281q0-62-23.5-117T719 68 623 3.5 506-20h-82q-62 0-117 23.5T211 68t-64.5 96T123 281v462q0 62 23.5 117t64.5 96 96 64.5 117 23.5h82q62 0 117-23.5t96-64.5 64.5-96T807 743v-41l-123-20v68q0 37-14 69.5T632 876t-56.5 38-69.5 14h-82q-37 0-69.5-14T298 876t-38-56.5-14-69.5V274q0-37 14-69.5t38-56.5 56.5-38T424 96h82q37 0 69.5 14t56.5 38 38 56.5 14 69.5v68l123-20v-41z"/><glyph glyph-name="d" unicode="d" d="M766 0l-68 104q-42-57-105-90.5T455-20h-31q-62 0-117 23.5T211 68t-64.5 96T123 281v462q0 62 23.5 117t64.5 96 96 64.5 117 23.5h31q69 0 128-28t101-78v496h123V0h-41zm-82 750q0 37-14 69.5T632 876t-56.5 38-69.5 14h-82q-37 0-69.5-14T298 876t-38-56.5-14-69.5V274q0-37 14-69.5t38-56.5 56.5-38T424 96h82q37 0 69.5 14t56.5 38 38 56.5 14 69.5v476z"/><glyph glyph-name="e" unicode="e" d="M807 281q0-62-23.5-117T719 68 623 3.5 506-20h-82q-62 0-117 23.5T211 68t-64.5 96T123 281v462q0 62 23.5 117t64.5 96 96 64.5 117 23.5h82q62 0 117-23.5t96-64.5 64.5-96T807 743V502H246V274q0-37 14-69.5t38-56.5 56.5-38T424 96h82q37 0 69.5 14t56.5 38 38 56.5 14 69.5v68l123-20v-41zM684 750q0 37-14 69.5T632 876t-56.5 38-69.5 14h-82q-37 0-69.5-14T298 876t-38-56.5-14-69.5V598h438v152z"/><glyph glyph-name="f" unicode="f" horiz-adv-x="588" d="M475 1317q-31 0-57.5-11.5T371 1274t-31.5-47-11.5-58v-145h239V907H328V0H205v907H20v117h185v139q0 56 21 105.5t58 86.5 86 58 105 21h113v-117H475z"/><glyph glyph-name="g" unicode="g" d="M817-129q0-62-23.5-114T729-332t-96-57.5T516-410h-51q-62 0-117 20.5T252-332t-64.5 89T164-129v4q0 60 22 110t60 87q-48 29-76.5 78.5T141 260q0 54 23 100.5t63 75.5q-48 42-76 101t-28 129v77q0 62 23.5 117t64.5 96 96 64.5 117 23.5h51q75 0 138.5-33.5T719 920l67 104h41V666q0-62-23.5-117T739 453t-96-64.5T526 365H348q-21 0-40-8.5T274.5 334 252 300.5t-8-40.5 8-40 22.5-33.5T308 164t40-8h168q62 0 117-20.5T729 78t64.5-89T817-125v-4zM705 750q0 37-14 69.5T652.5 876t-57 38-69.5 14H424q-37 0-69.5-14T298 876t-38-56.5-14-69.5v-91q0-37 14-69.5t38-56.5 56.5-38 69.5-14h102q37 0 69.5 14t57 38 38.5 56.5 14 69.5v91zm-5-869q0 37-14 66.5T648-3t-56.5 31T522 39h-63q-37 0-69.5-11T333-3t-38-49.5-14-66.5v-16q0-37 14-66t38-49.5 56.5-31.5 69.5-11h63q37 0 69.5 11t56.5 31.5 38 49.5 14 66v16z"/><glyph glyph-name="h" unicode="h" d="M684 0v750q0 37-14 69.5T632 876t-56.5 38-69.5 14h-82q-37 0-69.5-14T298 876t-38-56.5-14-69.5V0H123v1434h123V938q42 50 101 78t128 28h31q62 0 117-23.5t96-64.5 64.5-96T807 743V0H684z"/><glyph glyph-name="i" unicode="i" horiz-adv-x="451" d="M154 1270v164h143v-164H154zM164 0v1024h123V0H164z"/><glyph glyph-name="j" unicode="j" horiz-adv-x="451" d="M154 1270v164h143v-164H154zM287-109q0-62-23.5-116.5T199-321t-96-65-117-24v117q37 0 69.5 14t56.5 38 38 56.5 14 69.5v1139h123V-109z"/><glyph glyph-name="k" unicode="k" d="M729 0L311 512l418 512h160L461 512 889 0H729zM164 0v1434h123V0H164z"/><glyph glyph-name="l" unicode="l" horiz-adv-x="451" d="M164 0v1434h123V0H164z"/><glyph glyph-name="m" unicode="m" horiz-adv-x="1450" d="M1204 0v750q0 37-14 69.5t-38 56.5-56.5 38-69.5 14h-61q-37 0-69.5-14t-57-38-38.5-56.5-14-69.5V0H664v750q0 37-14 69.5T611.5 876t-57 38-69.5 14h-61q-37 0-69.5-14T298 876t-38-56.5-14-69.5V0H123v1024h41l67-104q42 57 105.5 90.5T475 1044h10q87 0 157-43t108-114q19 35 47 64t62 49.5 74 32 83 11.5h10q62 0 117-23.5t96-64.5 64.5-96 23.5-117V0h-123z"/><glyph glyph-name="n" unicode="n" d="M684 0v750q0 37-14 69.5T632 876t-56.5 38-69.5 14h-82q-37 0-69.5-14T298 876t-38-56.5-14-69.5V0H123v1024h41l67-104q42 57 105.5 90.5T475 1044h31q62 0 117-23.5t96-64.5 64.5-96T807 743V0H684z"/><glyph glyph-name="o" unicode="o" d="M807 281q0-62-23.5-117T719 68 623 3.5 506-20h-82q-62 0-117 23.5T211 68t-64.5 96T123 281v462q0 62 23.5 117t64.5 96 96 64.5 117 23.5h82q62 0 117-23.5t96-64.5 64.5-96T807 743V281zM684 750q0 37-14 69.5T632 876t-56.5 38-69.5 14h-82q-37 0-69.5-14T298 876t-38-56.5-14-69.5V274q0-37 14-69.5t38-56.5 56.5-38T424 96h82q37 0 69.5 14t56.5 38 38 56.5 14 69.5v476z"/><glyph glyph-name="p" unicode="p" d="M807 281q0-62-23.5-117T719 68 623 3.5 506-20h-31q-69 0-128 28T246 86v-496H123v1434h41l67-104q42 57 105.5 90.5T475 1044h31q62 0 117-23.5t96-64.5 64.5-96T807 743V281zM684 750q0 37-14 69.5T632 876t-56.5 38-69.5 14h-82q-37 0-69.5-14T298 876t-38-56.5-14-69.5V274q0-37 14-69.5t38-56.5 56.5-38T424 96h82q37 0 69.5 14t56.5 38 38 56.5 14 69.5v476z"/><glyph glyph-name="q" unicode="q" d="M684-410V86Q642 36 583 8T455-20h-31q-62 0-117 23.5T211 68t-64.5 96T123 281v462q0 62 23.5 117t64.5 96 96 64.5 117 23.5h31q75 0 138-33.5T698 920l68 104h41V-410H684zm0 1160q0 37-14 69.5T632 876t-56.5 38-69.5 14h-82q-37 0-69.5-14T298 876t-38-56.5-14-69.5V274q0-37 14-69.5t38-56.5 56.5-38T424 96h82q37 0 69.5 14t56.5 38 38 56.5 14 69.5v476z"/><glyph glyph-name="r" unicode="r" horiz-adv-x="588" d="M424 907q-37 0-69.5-14T298 855t-38-56.5-14-69.5V0H123v1024h41l67-104q42 57 105.5 90.5T475 1044h72V907H424z"/><glyph glyph-name="s" unicode="s" horiz-adv-x="940" d="M827 260q0-62-25-113.5T734 58 634.5.5 516-20h-82q-62 0-118.5 23.5t-99 64.5-68 96T123 281v41l123 20v-68q0-37 15.5-69.5T303 148t60-38 71-14h82q37 0 71 11t60.5 31.5 42 49.5 15.5 66q0 55-24 90t-63.5 58.5-90 39-103.5 31T320.5 508t-90 52.5T167 642t-24 122q0 62 24 113.5t65 88.5 95.5 57.5T444 1044h72q62 0 117-23.5t96-64.5 64.5-96T817 743v-4l-123-20v31q0 37-14 69.5T642 876t-56.5 38-69.5 14h-72q-37 0-69.5-11T318 885.5 280 836t-14-66q0-53 24-86.5t63.5-56.5 90-38.5 103-32 103-37.5 90-54 63.5-82.5T827 260z"/><glyph glyph-name="t" unicode="t" horiz-adv-x="711" d="M496 0q-56 0-105.5 21t-86 58-58 86T225 270v637H41v117h184v246l123 20v-266h260V907H348V264q0-31 11.5-57.5T391 160t47-31.5 58-11.5h112V0H496z"/><glyph glyph-name="u" unicode="u" d="M766 0l-68 104q-42-57-105-90.5T455-20h-31q-62 0-117 23.5T211 68t-64.5 96T123 281v743h123V274q0-37 14-69.5t38-56.5 56.5-38T424 96h82q37 0 69.5 14t56.5 38 38 56.5 14 69.5v750h123V0h-41z"/><glyph glyph-name="v" unicode="v" horiz-adv-x="827" d="M444 0h-61L20 1024h123l267-776 4-53 4 53 266 776h123z"/><glyph glyph-name="w" unicode="w" horiz-adv-x="1348" d="M985 0h-67L678 772l-4 53-4-53L430 0h-68L20 1024h125l244-774 4-53 4 53 240 774h74l239-774 4-53 4 53 244 774h125z"/><glyph glyph-name="x" unicode="x" horiz-adv-x="868" d="M653 0L434 393 215 0H82l287 512-287 512h133l219-393 219 393h133L500 512 786 0H653z"/><glyph glyph-name="y" unicode="y" horiz-adv-x="807" d="M289-410H170L352 88 20 1024h123l267-776 4-53 4 53 266 776h123z"/><glyph glyph-name="z" unicode="z" horiz-adv-x="848" d="M82 0v55l516 852H102v117h664v-55L250 117h516V0H82z"/><glyph glyph-name="braceleft" unicode="{" horiz-adv-x="778" d="M334 313q0 52-17 94.5T269.5 480t-73 46.5T104 543H82v110h33q48 2 88 19t69 47 45.5 71.5T334 883v370q0 77 26.5 141.5t74 111.5 112 73.5T686 1606h10v-111h-10q-50 0-92-16.5t-72.5-46.5-47.5-72.5-17-93.5V895q0-97-42.5-175T301 598q71-46 113.5-123T457 301V-70q0-51 17-93.5t47.5-72.5 72.5-46.5 92-16.5h10v-111h-10q-75 0-139.5 26.5t-112 73.5-74 111.5T334-57v370z"/><glyph glyph-name="bar" unicode="|" horiz-adv-x="457" d="M164-410v2016h129V-410H164z"/><glyph glyph-name="braceright" unicode="}" horiz-adv-x="778" d="M444-57q0-77-26.5-141.5t-74-111.5-112-73.5T92-410H82v111h10q50 0 92 16.5t73 46.5 48 72.5T322-70v371q0 97 41.5 174T477 598q-72 45-113.5 122.5T322 895v371q0 51-17 93.5t-48 72.5-73 46.5-92 16.5H82v111h10q75 0 139.5-26.5t112-73.5 74-111.5T444 1253V883q0-52 17-94.5t48-72.5 73-46.5 92-16.5h22V543h-32q-48-1-88.5-18.5t-70-48-45.5-72-16-91.5V-57z"/><glyph glyph-name="asciitilde" unicode="~" horiz-adv-x="985" d="M659 604q28 0 49.5 11.5t36.5 31 23 46 8 57.5h107q0-54-14-101t-42-82-70.5-55-99.5-20q-39 0-71.5 11T525 530t-53 35.5-49 35.5-47.5 27-49.5 11q-54 0-85.5-41T209 494H102q0 54 14 101t42.5 82 71 55 98.5 20q58 0 102.5-23t82.5-51 73-51 73-23z"/><glyph glyph-name="uni00A0" horiz-adv-x="471"/><glyph glyph-name="exclamdown" unicode="¡" horiz-adv-x="428" d="M305-410H123l55 1000h72zm-14 1434V870H137v154h154z"/><glyph glyph-name="cent" unicode="¢" d="M184-20l78 251q-63 41-101 107.5T123 485v463q0 62 23.5 117t64.5 96 96 64.5 117 23.5h82q17 0 33.5-1.5t31.5-6.5l66 213h108l-77-252q63-40 101-106.5T807 948v-41l-123-20v67q0 38-14 70.5t-39 56.5L393 303q8-2 15.5-2H506q37 0 69.5 14t56.5 38 38 56.5 14 69.5v68l123-21v-41q0-62-23.5-117T719 272t-96-64.5T506 184h-82q-34 0-66 6L293-20H184zm62 499q0-37 14-69.5t39-57.5l238 776q-8 2-15.5 3.5T506 1133h-82q-37 0-69.5-14t-56.5-38.5-38-57-14-69.5V479z"/><glyph glyph-name="sterling" unicode="£" horiz-adv-x="1108" d="M303 686q-14 48-28 97.5T250 884t-18 105.5-7 112.5q0 73 27.5 137t75.5 112 112.5 75.5T578 1454h28q73 0 137-27.5t112-75.5 75.5-112 27.5-137v-37l-129-21v58q0 48-18 89.5t-49 72.5-72.5 49-89.5 18h-16q-48 0-89.5-18t-73-49-49.5-72.5-18-89.5q0-55 7.5-107.5t20-103.5 28-102T440 686h340V584H467q12-56 20.5-113t8.5-119q0-66-20.5-124.5T420 123h545V0H123v123h35q48 0 86.5 18t65.5 49 42 72.5 15 89.5q0 60-9.5 117.5T334 584H123v102h180z"/><glyph glyph-name="currency" unicode="¤" horiz-adv-x="1237" d="M215 1212l150-151q54 40 117.5 62t135.5 22 136-22 116-62l152 151 90-92-149-149q38-54 59.5-117.5T1044 719t-21.5-135T961 467l153-154-92-90-154 152q-52-38-115-59t-135-21q-71 0-135 21t-116 59L215 223l-92 90 153 154q-40 53-60.5 117T195 719t20.5 134T274 969l-149 151zm102-493q0-64 23.5-119.5t64-96.5 95.5-65 118-24q64 0 119.5 24t96.5 65 64.5 96.5T922 719t-23.5 120-64.5 97.5-96.5 65.5-119.5 24q-63 0-118-24t-95.5-65.5-64-97.5T317 719z"/><glyph glyph-name="yen" unicode="¥" horiz-adv-x="950" d="M397 711L41 1434h139l295-596 295 596h139L553 711h274V608H541V475h286V373H541V0H412v373H123v102h289v133H123v103h274z"/><glyph glyph-name="brokenbar" unicode="¦" horiz-adv-x="457" d="M164-410v906h129v-906H164zm0 1110v906h129V700H164z"/><glyph glyph-name="section" unicode="§" horiz-adv-x="1073" d="M143 1102q0 73 27.5 137t75.5 112 112.5 75.5T496 1454h92q73 0 137-27.5t112-75.5 75.5-112 27.5-137v-37l-129-21v58q0 48-18 89.5t-49 72.5-72.5 49-89.5 18h-80q-48 0-89.5-18t-73-49-49.5-72.5-18-89.5v-27q0-69 29-116t77-80.5 108.5-58 124.5-50 124.5-56 108.5-75T921 531t29-156v-43q0-48-13-92t-36-82q23-39 36-86t13-107v-43q0-73-29.5-137t-79-112-115-75.5T588-430H485q-73 0-138.5 27.5t-115 75.5-79 112T123-78v58L252 0v-78q0-48 19.5-89.5T324-240t76.5-49 91.5-18h90q48 0 91 18t76 49 52.5 72.5T821-78v43q0 74-29 123t-77 83.5T606.5 230 482 278t-124.5 53T249 403.5 172 510t-29 156v26q0 51 13.5 97t38.5 88q-25 38-38.5 86.5T143 1075v27zm678-727q0 69-25.5 116.5t-68 81-97.5 57T516.5 675t-117 46.5T291 780q-19-41-19-88v-26q0-66 26-111t68.5-78 98-57 115-47.5T698 323t109-63q6 17 10 34.5t4 37.5v43z"/><glyph glyph-name="dieresis" unicode="¨" horiz-adv-x="950" d="M205 1231v153h153v-153H205zm387 0v153h153v-153H592z"/><glyph glyph-name="copyright" unicode="©" horiz-adv-x="1679" d="M102 717q0 102 26.5 196t74.5 176 115 149 149 115 176.5 74.5T840 1454t196-26.5 176-74.5 149-115 115-149 74.5-176 26.5-196-26.5-196.5-74.5-176-115-149-149-115-176-74T840-20 643.5 6.5 467 80.5t-149 115-115 149-74.5 176T102 717zm115 0q0-131 48-246t132-200.5 197.5-135T840 86q131 0 244.5 49.5t197.5 135T1414 471t48 246-48 246-132 200.5-197.5 135T840 1348q-132 0-245.5-49.5t-197.5-135T265 963t-48-246zm883-232q0-48-18-89.5t-49.5-72.5-73-49-89.5-18h-61q-48 0-89.5 18T647 323t-49 72.5-18 89.5v463q0 48 18 89.5t49 73 72.5 49.5 89.5 18h61q48 0 89.5-18t73-49.5 49.5-73 18-89.5v-51l-115-18v69q0 25-9.5 46.5T950 1032t-37.5 25.5-46.5 9.5h-53q-24 0-46-9.5t-38-25.5-25.5-37.5T694 948V485q0-24 9.5-45.5T729 402t38-25.5 46-9.5h53q25 0 46.5 9.5T950 402t25.5 37.5T985 485v70l115-18v-52z"/><glyph glyph-name="ordfeminine" unicode="ª" horiz-adv-x="717" d="M532 795l-36 53q-26-28-64.5-47T352 782h-18q-40 0-75 15t-60.5 41.5T158 901t-15 78q0 40 15 74.5t40.5 60T259 1154t75 15h145v86q0 20-7.5 37.5T451 1323t-30.5 21-37.5 8h-43q-20 0-37.5-8t-30.5-21-20.5-30.5-7.5-37.5v-36l-94 24q0 41 14.5 77t40 63 60.5 43 75 16h43q40 0 74.5-15t60-41 40.5-61 15-74V795h-41zm-53 297H334q-40 0-68-28t-28-69v-26q0-19 7.5-36.5t20.5-31 30.5-21.5 37.5-8h49q20 0 37.5 8t30.5 21.5 20.5 31T479 969v123zM143 631h430v-78H143v78z"/><glyph glyph-name="guillemotleft" unicode="«" horiz-adv-x="961" d="M797 84L420 467l377 383 41-41-250-342 250-342zm-338 0L82 467l377 383 41-41-250-342 250-342z"/><glyph glyph-name="logicalnot" unicode="¬" horiz-adv-x="1270" d="M1147 782V309h-129v344H123v129h1024z"/><glyph glyph-name="registered" unicode="®" horiz-adv-x="1679" d="M102 717q0 102 26.5 196t74.5 176 115 149 149 115 176.5 74.5T840 1454t196-26.5 176-74.5 149-115 115-149 74.5-176 26.5-196-26.5-196.5-74.5-176-115-149-149-115-176-74T840-20 643.5 6.5 467 80.5t-149 115-115 149-74.5 176T102 717zm115 0q0-131 48-246t132-200.5 197.5-135T840 86q131 0 244.5 49.5t197.5 135T1414 471t48 246-48 246-132 200.5-197.5 135T840 1348q-132 0-245.5-49.5t-197.5-135T265 963t-48-246zm784-449L791 598h-76V268H600v897h291q48 0 89.5-18t72.5-49 49-72.5 18-89.5V829q0-43-14.5-82.5t-40.5-70-61.5-51T926 600q24-37 51.5-80.5t55-87.5 54.5-86.5 50-77.5h-136zm5 668q0 24-9.5 46t-25.5 38-38 25.5-46 9.5H715V709h172q24 0 46 9.5t38 25.5 25.5 38 9.5 47v107z"/><glyph glyph-name="macron" unicode="¯" horiz-adv-x="1010" d="M205 1329h600v-98H205v98z"/><glyph glyph-name="degree" unicode="°" horiz-adv-x="856" d="M143 1169q0 59 22.5 111t61 90.5 90.5 61 111 22.5 111-22.5 90.5-61 61-90.5 22.5-111-22.5-110.5-61-90-90.5-61T428 885t-111 22.5-90.5 61-61 90T143 1169zm115 0q0-35 13.5-66.5t36.5-55 54-37 66-13.5 66 13.5 54 37 36.5 55T598 1169q0 36-13.5 67t-36.5 54.5-54 37-66 13.5-66-13.5-54-37-36.5-54.5-13.5-67z"/><glyph glyph-name="plusminus" unicode="±" horiz-adv-x="1188" d="M528 205v448H82v129h446v447h129V782h449V653H657V205h449V76H82v129h446z"/><glyph glyph-name="twosuperior" unicode="²" horiz-adv-x="692" d="M340 1346q-35 0-59.5-24.5T256 1262v-48l-98 13v35q0 38 14.5 70.5t38.5 57 56.5 38.5 68.5 14h29q38 0 70.5-13.5t56.5-38 37.5-59.5 13.5-78q0-33-10-68.5t-26.5-70.5-37.5-69-43-64q-52-71-117-139h240v-97H143v78q85 69 151 142 28 31 55 66.5t48 72.5 34 75 13 74q0 47-24.5 70t-57.5 23h-22z"/><glyph glyph-name="threesuperior" unicode="³" horiz-adv-x="672" d="M528 915q0-36-13.5-68.5T477 790t-56.5-38.5T350 737h-28q-38 0-70.5 14.5T195 790t-38 56.5-14 68.5v35l99 15v-50q0-34 24.5-57.5T326 834h20q35 0 59.5 23.5T430 915v54q0 35-24.5 59.5T346 1053h-63v96h63q18 0 33 6.5t26.5 17.5 18 26 6.5 32v33q0 17-6.5 32t-18 26-26.5 17.5-33 6.5h-20q-18 0-33-6.5t-26.5-17.5-18-26-6.5-32v-50l-99 15v35q0 36 14 68.5t38 56.5 56.5 38.5T322 1442h28q38 0 70.5-14.5T477 1389t37.5-56.5T528 1264v-23q0-91-65-141 28-25 46.5-62t18.5-77v-46z"/><glyph glyph-name="acute" unicode="´" horiz-adv-x="778" d="M297 1188h-92l164 246h204z"/><glyph glyph-name="mu" unicode="µ" d="M123 1024h123V274q0-37 14-69.5t38-56.5 56.5-38T424 96h82q37 0 69.5 14t56.5 38 38 56.5 14 69.5v750h123V0h-41l-68 104q-42-57-105-90.5T455-20h-31q-51 0-96 15.5T246 39v-334H123v1319z"/><glyph glyph-name="paragraph" unicode="¶" horiz-adv-x="1155" d="M686-410H557V633H455q-73 0-137.5 27.5T205 736t-75.5 112T102 985v96q0 73 27.5 137.5T205 1331t112.5 75.5T455 1434h536V-410H862v1721H686V-410z"/><glyph glyph-name="periodcentered" unicode="·" horiz-adv-x="440" d="M143 655v154h154V655H143z"/><glyph glyph-name="cedilla" unicode="¸" horiz-adv-x="741" d="M416 0h86l-60-102q9-4 25-14.5t31.5-28.5 27-43 11.5-58q0-38-14-69t-38.5-52.5-58.5-33-74-11.5q-45 0-81.5 17.5T205-348l47 72q5-6 14-14t22.5-15 30-12 35.5-5q37 0 62.5 21t25.5 59q0 24-9.5 42t-26 30-37.5 17-45 3z"/><glyph glyph-name="onesuperior" unicode="¹" horiz-adv-x="694" d="M143 745v97h156v485l-156-65v100l174 72h80V842h154v-97H143z"/><glyph glyph-name="ordmasculine" unicode="º" horiz-adv-x="717" d="M573 973q0-39-15-74t-40.5-61-60-41-74.5-15h-49q-40 0-75 15t-60.5 41-40.5 61-15 74v278q0 39 15 74t40.5 61 60.5 41 75 15h49q40 0 74.5-15t60-41 40.5-61 15-74V973zm-94 282q0 20-7.5 37.5T451 1323t-30.5 21-37.5 8h-49q-20 0-37.5-8t-30.5-21-20.5-30.5-7.5-37.5V969q0-19 7.5-36.5t20.5-31 30.5-21.5 37.5-8h49q20 0 37.5 8t30.5 21.5 20.5 31T479 969v286zM143 631h430v-78H143v78z"/><glyph glyph-name="guillemotright" unicode="»" horiz-adv-x="961" d="M123 125l250 342-250 342 41 41 377-383L164 84zm338 0l250 342-250 342 41 41 377-383L502 84z"/><glyph glyph-name="onequarter" unicode="¼" horiz-adv-x="1364" d="M1165 119V0h-90v119H815v47l293 520h57V207h56v-88h-56zm-90 330L942 207h133v242zM287 0l817 1434h115L401 0H287zM143 745v97h156v485l-156-65v100l174 72h80V842h154v-97H143z"/><glyph glyph-name="onehalf" unicode="½" horiz-adv-x="1448" d="M143 745v97h156v485l-156-65v100l174 72h80V842h154v-97H143zm953-145q-35 0-59.5-24.5T1012 516v-47l-99 12v35q0 38 14.5 70.5t39 57 57 38.5 68.5 14h28q38 0 70.5-13t56.5-37.5 37.5-59.5 13.5-78q0-33-10-68.5t-26.5-71-37-69.5-42.5-64q-51-71-117-139h240V0H899v78q85 69 151 142 28 31 55 66.5t48 72.5 34 75 13 74q0 46-25 69t-57 23h-22zM287 0l817 1434h115L401 0H287z"/><glyph glyph-name="threequarters" unicode="¾" horiz-adv-x="1364" d="M528 915q0-36-13.5-68.5T477 790t-56.5-38.5T350 737h-28q-38 0-70.5 14.5T195 790t-38 56.5-14 68.5v35l99 15v-50q0-34 24.5-57.5T326 834h20q35 0 59.5 23.5T430 915v54q0 35-24.5 59.5T346 1053h-63v96h63q18 0 33 6.5t26.5 17.5 18 26 6.5 32v33q0 17-6.5 32t-18 26-26.5 17.5-33 6.5h-20q-18 0-33-6.5t-26.5-17.5-18-26-6.5-32v-50l-99 15v35q0 36 14 68.5t38 56.5 56.5 38.5T322 1442h28q38 0 70.5-14.5T477 1389t37.5-56.5T528 1264v-23q0-91-65-141 28-25 46.5-62t18.5-77v-46zm637-796V0h-90v119H815v47l293 520h57V207h56v-88h-56zm-90 330L942 207h133v242zM287 0l817 1434h115L401 0H287z"/><glyph glyph-name="questiondown" unicode="¿" horiz-adv-x="950" d="M618 1024V870H465v154h153zM477 590h129v-39q0-66-16-115t-42.5-86-60-66-69-55.5-69-53.5-60-60T247 40t-16-99v-19q0-48 18-89.5t49.5-72.5 73-49 89.5-18h28q48 0 89.5 18t73 49 49.5 72.5T719-78v58l129-21v-37q0-73-27.5-137T745-327t-112-75.5T496-430h-41q-73 0-137.5 27.5T205-327t-75.5 112T102-78v19q0 69 16 121t42.5 92 60 71 69 58 69 53 60 57 42.5 69 16 89v39z"/><glyph glyph-name="Agrave" unicode="À" horiz-adv-x="950" d="M702 334H248L154 0H20l420 1434h68L930 0H797zM283 457h385l-189 661-4 53-4-53zm-33 1386h205l163-246h-92z"/><glyph glyph-name="Aacute" unicode="Á" horiz-adv-x="950" d="M702 334H248L154 0H20l420 1434h68L930 0H797zM283 457h385l-189 661-4 53-4-53zm141 1140h-92l164 246h204z"/><glyph glyph-name="Acircumflex" unicode="Â" horiz-adv-x="950" d="M702 334H248L154 0H20l420 1434h68L930 0H797zM283 457h385l-189 661-4 53-4-53zm458 1140H618l-143 164-143-164H209l205 246h123z"/><glyph glyph-name="Atilde" unicode="Ã" horiz-adv-x="950" d="M702 334H248L154 0H20l420 1434h68L930 0H797zM283 457h385l-189 661-4 53-4-53zm329 1272q42 0 64 31.5t22 82.5h95q0-45-11.5-84t-34.5-68-57.5-46-79.5-17q-48 0-84.5 18t-68 39.5-60 39.5-59.5 18q-42 0-63-31.5t-21-81.5h-94q0 45 11 83.5t33.5 67.5 57 45.5T342 1843q45 0 79.5-18t65-39 60.5-39 65-18z"/><glyph glyph-name="Adieresis" unicode="Ä" horiz-adv-x="950" d="M702 334H248L154 0H20l420 1434h68L930 0H797zM283 457h385l-189 661-4 53-4-53zm-78 1183v154h153v-154H205zm387 0v154h153v-154H592z"/><glyph glyph-name="Aring" unicode="Å" horiz-adv-x="950" d="M264 1546q0 44 16.5 82.5t45 67.5 67 46 82.5 17 82.5-17 67.5-46 46-67.5 17-82.5q0-36-11.5-68.5t-32-59.5-48.5-46.5-61-28.5L930 0H797l-95 334H248L154 0H20l394 1343q-33 10-60.5 29.5t-47.5 46-31 59-11 68.5zm19-1089h385l-189 661-4 53-4-53zm84 1089q0-22 8.5-42t23.5-35 34.5-24 41.5-9q23 0 43.5 9t35.5 24 23.5 35 8.5 42q0 23-8.5 43.5t-23.5 36-35.5 24.5-43.5 9q-22 0-41.5-9t-34.5-24.5-23.5-36-8.5-43.5z"/><glyph glyph-name="AE" unicode="Æ" horiz-adv-x="1767" d="M879 0v334H352L154 0H20l859 1434h807v-123h-678V778h548V655h-548V123h678V0H879zm0 457v772l-21-53-432-719h453z"/><glyph glyph-name="Ccedilla" unicode="Ç" horiz-adv-x="1073" d="M508-20h-12q-73 0-137.5 27.5T246 83t-75.5 112T143 332v770q0 73 27.5 137t75.5 112 112.5 75.5T496 1454h102q73 0 137-27.5t112-75.5 75.5-112 27.5-137v-58l-129-20v78q0 48-18 89.5t-49 72.5-72.5 49-89.5 18h-90q-48 0-89.5-18t-73-49-49.5-72.5-18-89.5V332q0-48 18-89.5t49.5-73 73-49.5 89.5-18h90q48 0 89.5 18t72.5 49.5 49 73 18 89.5v78l129-21v-57q0-73-27.5-137T847 83 735 7.5 598-20h-4l-47-82q9-4 25-14.5t31-28.5 26.5-43 11.5-58q0-38-14-69t-38.5-52.5-58-33T457-412q-45 0-82 17.5T309-348l47 72q5-6 14.5-14t23-15 30-12 35.5-5q37 0 62.5 21t25.5 59q0 24-9.5 42t-26 30-38 17-45.5 3z"/><glyph glyph-name="Egrave" unicode="È" horiz-adv-x="1053" d="M164 0v1434h807v-123H293V778h549V655H293V123h678V0H164zm137 1843h205l164-246h-92z"/><glyph glyph-name="Eacute" unicode="É" horiz-adv-x="1053" d="M164 0v1434h807v-123H293V778h549V655H293V123h678V0H164zm352 1597h-92l164 246h205z"/><glyph glyph-name="Ecircumflex" unicode="Ê" horiz-adv-x="1053" d="M164 0v1434h807v-123H293V778h549V655H293V123h678V0H164zm670 1597H711l-144 164-143-164H301l205 246h123z"/><glyph glyph-name="Edieresis" unicode="Ë" horiz-adv-x="1053" d="M164 0v1434h807v-123H293V778h549V655H293V123h678V0H164zm92 1640v154h154v-154H256zm387 0v154h154v-154H643z"/><glyph glyph-name="Igrave" unicode="Ì" horiz-adv-x="457" d="M164 0v1434h129V0H164zM4 1843h205l164-246h-92z"/><glyph glyph-name="Iacute" unicode="Í" horiz-adv-x="457" d="M164 0v1434h129V0H164zm14 1597H86l164 246h205z"/><glyph glyph-name="Icircumflex" unicode="Î" horiz-adv-x="457" d="M164 0v1434h129V0H164zm332 1597H373l-144 164-143-164H-37l205 246h123z"/><glyph glyph-name="Idieresis" unicode="Ï" horiz-adv-x="457" d="M164 0v1434h129V0H164zM-41 1640v154h154v-154H-41zm387 0v154h154v-154H346z"/><glyph glyph-name="Eth" unicode="Ð" horiz-adv-x="1139" d="M188 686v748h455q73 0 137-27.5t112-75.5 75.5-112.5T995 1081V352q0-73-27.5-137T892 103 780 27.5 643 0H188v584H61v102h127zm678 395q0 48-18 89.5t-49 73-72.5 49.5-89.5 18H317V686h240V584H317V123h320q48 0 89.5 18t72.5 49 49 72.5 18 89.5v729z"/><glyph glyph-name="Ntilde" unicode="Ñ" horiz-adv-x="1135" d="M903 0L305 1044l-12 62V0H164v1434h67L829 389l13-61v1106h129V0h-68zM702 1729q42 0 64 31.5t22 82.5h95q0-45-11.5-84t-34.5-68-57.5-46-79.5-17q-48 0-84.5 18t-68 39.5-60 39.5-59.5 18q-42 0-63-31.5t-21-81.5h-94q0 45 11 83.5t33.5 67.5 57 45.5T432 1843q45 0 79.5-18t65-39 60.5-39 65-18z"/><glyph glyph-name="Ograve" unicode="Ò" horiz-adv-x="1094" d="M950 332q0-73-27.5-137T847 83 735 7.5 598-20H496q-73 0-137.5 27.5T246 83t-75.5 112T143 332v770q0 73 27.5 137t75.5 112 112.5 75.5T496 1454h102q73 0 137-27.5t112-75.5 75.5-112 27.5-137V332zm-129 770q0 48-18 89.5t-49 72.5-72.5 49-89.5 18h-90q-48 0-89.5-18t-73-49-49.5-72.5-18-89.5V332q0-48 18-89.5t49.5-73 73-49.5 89.5-18h90q48 0 89.5 18t72.5 49.5 49 73 18 89.5v770zm-479 741h205l164-246h-93z"/><glyph glyph-name="Oacute" unicode="Ó" horiz-adv-x="1094" d="M950 332q0-73-27.5-137T847 83 735 7.5 598-20H496q-73 0-137.5 27.5T246 83t-75.5 112T143 332v770q0 73 27.5 137t75.5 112 112.5 75.5T496 1454h102q73 0 137-27.5t112-75.5 75.5-112 27.5-137V332zm-129 770q0 48-18 89.5t-49 72.5-72.5 49-89.5 18h-90q-48 0-89.5-18t-73-49-49.5-72.5-18-89.5V332q0-48 18-89.5t49.5-73 73-49.5 89.5-18h90q48 0 89.5 18t72.5 49.5 49 73 18 89.5v770zm-305 495h-92l164 246h205z"/><glyph glyph-name="Ocircumflex" unicode="Ô" horiz-adv-x="1094" d="M950 332q0-73-27.5-137T847 83 735 7.5 598-20H496q-73 0-137.5 27.5T246 83t-75.5 112T143 332v770q0 73 27.5 137t75.5 112 112.5 75.5T496 1454h102q73 0 137-27.5t112-75.5 75.5-112 27.5-137V332zm-129 770q0 48-18 89.5t-49 72.5-72.5 49-89.5 18h-90q-48 0-89.5-18t-73-49-49.5-72.5-18-89.5V332q0-48 18-89.5t49.5-73 73-49.5 89.5-18h90q48 0 89.5 18t72.5 49.5 49 73 18 89.5v770zm-8 495H690l-143 164-144-164H281l204 246h123z"/><glyph glyph-name="Otilde" unicode="Õ" horiz-adv-x="1094" d="M950 332q0-73-27.5-137T847 83 735 7.5 598-20H496q-73 0-137.5 27.5T246 83t-75.5 112T143 332v770q0 73 27.5 137t75.5 112 112.5 75.5T496 1454h102q73 0 137-27.5t112-75.5 75.5-112 27.5-137V332zm-129 770q0 48-18 89.5t-49 72.5-72.5 49-89.5 18h-90q-48 0-89.5-18t-73-49-49.5-72.5-18-89.5V332q0-48 18-89.5t49.5-73 73-49.5 89.5-18h90q48 0 89.5 18t72.5 49.5 49 73 18 89.5v770zm-139 627q42 0 64 31.5t22 82.5h94q0-45-11.5-84t-34-68-57-46-79.5-17q-48 0-85 18t-68.5 39.5-60 39.5-58.5 18q-42 0-63-31.5t-21-81.5h-95q0 45 11.5 83.5t34 67.5 57 45.5T412 1843q44 0 78.5-18t65.5-39 61-39 65-18z"/><glyph glyph-name="Odieresis" unicode="Ö" horiz-adv-x="1094" d="M950 332q0-73-27.5-137T847 83 735 7.5 598-20H496q-73 0-137.5 27.5T246 83t-75.5 112T143 332v770q0 73 27.5 137t75.5 112 112.5 75.5T496 1454h102q73 0 137-27.5t112-75.5 75.5-112 27.5-137V332zm-129 770q0 48-18 89.5t-49 72.5-72.5 49-89.5 18h-90q-48 0-89.5-18t-73-49-49.5-72.5-18-89.5V332q0-48 18-89.5t49.5-73 73-49.5 89.5-18h90q48 0 89.5 18t72.5 49.5 49 73 18 89.5v770zm-545 538v154h154v-154H276zm388 0v154h153v-154H664z"/><glyph glyph-name="multiply" unicode="×" horiz-adv-x="1196" d="M195 1212l403-403 403 403 91-92-402-401 404-406-93-90-403 404-403-404-93 90 404 406-402 401z"/><glyph glyph-name="Oslash" unicode="Ø" horiz-adv-x="1094" d="M102-61l99 198q-28 42-43 91.5T143 332v770q0 73 27.5 137t75.5 112 112.5 75.5T496 1454h102q63 0 120.5-21.5T821 1374l62 121h108l-100-201q28-42 43.5-90t15.5-102V332q0-73-27.5-137T847 83 735 7.5 598-20H496Q431-20 374 .5T270 59L211-61H102zm719 1163q0 11-1 22.5t-3 22.5L330 178q32-35 75.5-55.5T502 102h90q48 0 89.5 18t72.5 49.5 49 73 18 89.5v770zM272 332q0-13 .5-23.5T276 287l486 968q-31 36-75 56t-95 20h-90q-48 0-89.5-18t-73-49-49.5-72.5-18-89.5V332z"/><glyph glyph-name="Ugrave" unicode="Ù" horiz-adv-x="1094" d="M950 332q0-73-27.5-137T847 83 735 7.5 598-20H496q-73 0-137.5 27.5T246 83t-75.5 112T143 332v1102h129V332q0-48 18-89.5t49.5-73 73-49.5 89.5-18h90q48 0 89.5 18t72.5 49.5 49 73 18 89.5v1102h129V332zM301 1843h205l164-246h-92z"/><glyph glyph-name="Uacute" unicode="Ú" horiz-adv-x="1094" d="M950 332q0-73-27.5-137T847 83 735 7.5 598-20H496q-73 0-137.5 27.5T246 83t-75.5 112T143 332v1102h129V332q0-48 18-89.5t49.5-73 73-49.5 89.5-18h90q48 0 89.5 18t72.5 49.5 49 73 18 89.5v1102h129V332zM516 1597h-92l164 246h205z"/><glyph glyph-name="Ucircumflex" unicode="Û" horiz-adv-x="1094" d="M950 332q0-73-27.5-137T847 83 735 7.5 598-20H496q-73 0-137.5 27.5T246 83t-75.5 112T143 332v1102h129V332q0-48 18-89.5t49.5-73 73-49.5 89.5-18h90q48 0 89.5 18t72.5 49.5 49 73 18 89.5v1102h129V332zM813 1597H690l-143 164-144-164H281l204 246h123z"/><glyph glyph-name="Udieresis" unicode="Ü" horiz-adv-x="1094" d="M950 332q0-73-27.5-137T847 83 735 7.5 598-20H496q-73 0-137.5 27.5T246 83t-75.5 112T143 332v1102h129V332q0-48 18-89.5t49.5-73 73-49.5 89.5-18h90q48 0 89.5 18t72.5 49.5 49 73 18 89.5v1102h129V332zM276 1640v154h154v-154H276zm388 0v154h153v-154H664z"/><glyph glyph-name="Yacute" unicode="Ý" horiz-adv-x="950" d="M541 686V0H412v684L41 1434h139l295-596 295 596h139zm-76 911h-92l164 246h204z"/><glyph glyph-name="Thorn" unicode="Þ" horiz-adv-x="1053" d="M971 682q0-73-27.5-137T868 433t-112.5-75.5T618 330H293V0H164v1434h129v-283h325q73 0 137.5-27.5T868 1048t75.5-112T971 799V682zM842 799q0 48-18 89.5T774.5 961t-73 49-89.5 18H293V453h319q48 0 89.5 18t73 49 49.5 72.5 18 89.5v117z"/><glyph glyph-name="germandbls" unicode="ß" horiz-adv-x="1053" d="M471 117h111q48 0 89.5 18t72.5 49 49 72.5 18 89.5v131q0 48-18 89.5t-49 73-72.5 49.5-89.5 18H471v116h111q48 0 89.5 18t72.5 49.5 49 73 18 89.5v55q0 48-18 89.5t-49 72.5-72.5 49-89.5 18h-60q-48 0-89.5-18t-72.5-49-49-72.5-18-89.5V0H170v1102q0 73 27 137t73.5 112 109.5 75.5 136 27.5h66q73 0 137-27.5t112-75.5 75.5-112 27.5-137v-25q0-51-13.5-97.5t-38-86.5-59-72.5T748 766q41-22 75.5-54.5t59-72.5 38-86.5T934 455V352q0-73-27.5-137T831 103 719 27.5 582 0H471v117z"/><glyph glyph-name="agrave" unicode="à" d="M766 0l-68 102q-42-55-105-88.5T455-20h-31q-62 0-117 23.5T211 68t-64.5 96T123 281v10q0 62 23.5 117t64.5 96 96 64.5T424 592h260v158q0 37-14 69.5T632 876t-56.5 38-69.5 14h-72q-37 0-69.5-14T308 876t-38-56.5-14-69.5v-37l-123 20v10q0 62 23.5 117t64.5 96 96 64.5 117 23.5h72q62 0 117-23.5t96-64.5 64.5-96T807 743V0h-41zm-82 496H424q-37 0-69.5-14T298 443.5t-38-57-14-69.5v-43q0-37 14-69.5t38-56.5 56.5-38T424 96h82q37 0 69.5 14t56.5 38 38 56.5 14 69.5v222zm-444 938h204l164-246h-92z"/><glyph glyph-name="aacute" unicode="á" d="M766 0l-68 102q-42-55-105-88.5T455-20h-31q-62 0-117 23.5T211 68t-64.5 96T123 281v10q0 62 23.5 117t64.5 96 96 64.5T424 592h260v158q0 37-14 69.5T632 876t-56.5 38-69.5 14h-72q-37 0-69.5-14T308 876t-38-56.5-14-69.5v-37l-123 20v10q0 62 23.5 117t64.5 96 96 64.5 117 23.5h72q62 0 117-23.5t96-64.5 64.5-96T807 743V0h-41zm-82 496H424q-37 0-69.5-14T298 443.5t-38-57-14-69.5v-43q0-37 14-69.5t38-56.5 56.5-38T424 96h82q37 0 69.5 14t56.5 38 38 56.5 14 69.5v222zm-270 692h-92l163 246h205z"/><glyph glyph-name="acircumflex" unicode="â" d="M766 0l-68 102q-42-55-105-88.5T455-20h-31q-62 0-117 23.5T211 68t-64.5 96T123 281v10q0 62 23.5 117t64.5 96 96 64.5T424 592h260v158q0 37-14 69.5T632 876t-56.5 38-69.5 14h-72q-37 0-69.5-14T308 876t-38-56.5-14-69.5v-37l-123 20v10q0 62 23.5 117t64.5 96 96 64.5 117 23.5h72q62 0 117-23.5t96-64.5 64.5-96T807 743V0h-41zm-82 496H424q-37 0-69.5-14T298 443.5t-38-57-14-69.5v-43q0-37 14-69.5t38-56.5 56.5-38T424 96h82q37 0 69.5 14t56.5 38 38 56.5 14 69.5v222zm68 692H629l-144 164-143-164H219l205 246h123z"/><glyph glyph-name="atilde" unicode="ã" d="M766 0l-68 102q-42-55-105-88.5T455-20h-31q-62 0-117 23.5T211 68t-64.5 96T123 281v10q0 62 23.5 117t64.5 96 96 64.5T424 592h260v158q0 37-14 69.5T632 876t-56.5 38-69.5 14h-72q-37 0-69.5-14T308 876t-38-56.5-14-69.5v-37l-123 20v10q0 62 23.5 117t64.5 96 96 64.5 117 23.5h72q62 0 117-23.5t96-64.5 64.5-96T807 743V0h-41zm-82 496H424q-37 0-69.5-14T298 443.5t-38-57-14-69.5v-43q0-37 14-69.5t38-56.5 56.5-38T424 96h82q37 0 69.5 14t56.5 38 38 56.5 14 69.5v222zm-82 823q42 0 64 32t22 83h94q0-45-11.5-84t-34-68-57-46-79.5-17q-48 0-84.5 18t-68 39-60 39-59.5 18q-42 0-63-31.5t-21-80.5h-94q0 44 11 83t33.5 68 57 45.5T332 1434q45 0 79.5-18t65-39.5T537 1337t65-18z"/><glyph glyph-name="adieresis" unicode="ä" d="M766 0l-68 102q-42-55-105-88.5T455-20h-31q-62 0-117 23.5T211 68t-64.5 96T123 281v10q0 62 23.5 117t64.5 96 96 64.5T424 592h260v158q0 37-14 69.5T632 876t-56.5 38-69.5 14h-72q-37 0-69.5-14T308 876t-38-56.5-14-69.5v-37l-123 20v10q0 62 23.5 117t64.5 96 96 64.5 117 23.5h72q62 0 117-23.5t96-64.5 64.5-96T807 743V0h-41zm-82 496H424q-37 0-69.5-14T298 443.5t-38-57-14-69.5v-43q0-37 14-69.5t38-56.5 56.5-38T424 96h82q37 0 69.5 14t56.5 38 38 56.5 14 69.5v222zm-469 735v153h154v-153H215zm387 0v153h154v-153H602z"/><glyph glyph-name="aring" unicode="å" d="M766 0l-68 102q-42-55-105-88.5T455-20h-31q-62 0-117 23.5T211 68t-64.5 96T123 281v10q0 62 23.5 117t64.5 96 96 64.5T424 592h260v158q0 37-14 69.5T632 876t-56.5 38-69.5 14h-72q-37 0-69.5-14T308 876t-38-56.5-14-69.5v-37l-123 20v10q0 62 23.5 117t64.5 96 96 64.5 117 23.5h72q62 0 117-23.5t96-64.5 64.5-96T807 743V0h-41zm-82 496H424q-37 0-69.5-14T298 443.5t-38-57-14-69.5v-43q0-37 14-69.5t38-56.5 56.5-38T424 96h82q37 0 69.5 14t56.5 38 38 56.5 14 69.5v222zm-426 862q0 44 16.5 82.5t45 67.5 67 46 82.5 17 82.5-17 67.5-46 46-67.5 17-82.5-17-82.5-46-67-67.5-45T469 1147t-82.5 16.5-67 45-45 67T258 1358zm102 0q0-22 8.5-42.5T392 1280t35-24 42-9q23 0 43 9t35 24 24 35.5 9 42.5q0 23-9 43.5t-24 35.5-35 24-43 9q-22 0-42-9t-35-24-23.5-35.5-8.5-43.5z"/><glyph glyph-name="ae" unicode="æ" horiz-adv-x="1491" d="M1368 281q0-62-23.5-117T1280 68t-96-64.5T1067-20h-82q-42 0-81.5 11T830 22t-62 48.5-47 62.5q-28-45-59.5-74.5t-66-47-70-24.5-70.5-7h-31q-62 0-117 23.5T211 68t-64.5 96T123 281v10q0 62 23.5 117t64.5 96 96 64.5T424 592h260v164q-1 35-15.5 66.5t-38.5 55-56 37-68 13.5h-72q-37 0-69.5-14T308 876t-38-56.5-14-69.5v-37l-123 20v10q0 62 23.5 117t64.5 96 96 64.5 117 23.5h72q72 0 134.5-32.5T745 924q42 55 104 87.5t136 32.5h82q62 0 117-23.5t96-64.5 64.5-96 23.5-117V502H807V274q0-37 14-69.5t38-56.5 56.5-38T985 96h82q37 0 69.5 14t56.5 38 38 56.5 14 69.5v68l123-20v-41zM684 496H424q-37 0-69.5-14T298 443.5t-38-57-14-69.5v-43q0-37 14-69.5t38-56.5 56.5-38T424 96h82q37 0 69.5 14t56.5 38 38 56.5 14 69.5v222zm561 254q0 37-14 69.5t-38 56.5-56.5 38-69.5 14h-82q-36 0-68-13.5t-56-37-38.5-55T807 756V598h438v152z"/><glyph glyph-name="ccedilla" unicode="ç" d="M436-20h-12q-62 0-117 23.5T211 68t-64.5 96T123 281v462q0 62 23.5 117t64.5 96 96 64.5 117 23.5h82q62 0 117-23.5t96-64.5 64.5-96T807 743v-41l-123-20v68q0 37-14 69.5T632 876t-56.5 38-69.5 14h-82q-37 0-69.5-14T298 876t-38-56.5-14-69.5V274q0-37 14-69.5t38-56.5 56.5-38T424 96h82q37 0 69.5 14t56.5 38 38 56.5 14 69.5v68l123-20v-41q0-60-22.5-113t-61-93.5T633 9 522-20l-47-82q9-4 25-14.5t31.5-28.5 26.5-43 11-58q0-38-13.5-69t-38-52.5-58.5-33-74-11.5q-45 0-81.5 17.5T238-348l47 72q5-6 14-14t22.5-15 30-12 35.5-5q37 0 62.5 21t25.5 59q0 24-9.5 42t-26 30-38 17-45.5 3z"/><glyph glyph-name="egrave" unicode="è" d="M807 281q0-62-23.5-117T719 68 623 3.5 506-20h-82q-62 0-117 23.5T211 68t-64.5 96T123 281v462q0 62 23.5 117t64.5 96 96 64.5 117 23.5h82q62 0 117-23.5t96-64.5 64.5-96T807 743V502H246V274q0-37 14-69.5t38-56.5 56.5-38T424 96h82q37 0 69.5 14t56.5 38 38 56.5 14 69.5v68l123-20v-41zM684 750q0 37-14 69.5T632 876t-56.5 38-69.5 14h-82q-37 0-69.5-14T298 876t-38-56.5-14-69.5V598h438v152zm-444 684h204l164-246h-92z"/><glyph glyph-name="eacute" unicode="é" d="M807 281q0-62-23.5-117T719 68 623 3.5 506-20h-82q-62 0-117 23.5T211 68t-64.5 96T123 281v462q0 62 23.5 117t64.5 96 96 64.5 117 23.5h82q62 0 117-23.5t96-64.5 64.5-96T807 743V502H246V274q0-37 14-69.5t38-56.5 56.5-38T424 96h82q37 0 69.5 14t56.5 38 38 56.5 14 69.5v68l123-20v-41zM684 750q0 37-14 69.5T632 876t-56.5 38-69.5 14h-82q-37 0-69.5-14T298 876t-38-56.5-14-69.5V598h438v152zm-270 438h-92l163 246h205z"/><glyph glyph-name="ecircumflex" unicode="ê" d="M807 281q0-62-23.5-117T719 68 623 3.5 506-20h-82q-62 0-117 23.5T211 68t-64.5 96T123 281v462q0 62 23.5 117t64.5 96 96 64.5 117 23.5h82q62 0 117-23.5t96-64.5 64.5-96T807 743V502H246V274q0-37 14-69.5t38-56.5 56.5-38T424 96h82q37 0 69.5 14t56.5 38 38 56.5 14 69.5v68l123-20v-41zM684 750q0 37-14 69.5T632 876t-56.5 38-69.5 14h-82q-37 0-69.5-14T298 876t-38-56.5-14-69.5V598h438v152zm68 438H629l-144 164-143-164H219l205 246h123z"/><glyph glyph-name="edieresis" unicode="ë" d="M807 281q0-62-23.5-117T719 68 623 3.5 506-20h-82q-62 0-117 23.5T211 68t-64.5 96T123 281v462q0 62 23.5 117t64.5 96 96 64.5 117 23.5h82q62 0 117-23.5t96-64.5 64.5-96T807 743V502H246V274q0-37 14-69.5t38-56.5 56.5-38T424 96h82q37 0 69.5 14t56.5 38 38 56.5 14 69.5v68l123-20v-41zM684 750q0 37-14 69.5T632 876t-56.5 38-69.5 14h-82q-37 0-69.5-14T298 876t-38-56.5-14-69.5V598h438v152zm-469 481v153h154v-153H215zm387 0v153h154v-153H602z"/><glyph glyph-name="igrave" unicode="ì" horiz-adv-x="451" d="M164 0v1024h123V0H164zM0 1434h205l164-246h-93z"/><glyph glyph-name="iacute" unicode="í" horiz-adv-x="451" d="M164 0v1024h123V0H164zm10 1188H82l164 246h205z"/><glyph glyph-name="icircumflex" unicode="î" horiz-adv-x="451" d="M164 0v1024h123V0H164zm328 1188H369l-144 164-143-164H-41l205 246h123z"/><glyph glyph-name="idieresis" unicode="ï" horiz-adv-x="451" d="M164 0v1024h123V0H164zM-45 1231v153h154v-153H-45zm387 0v153h154v-153H342z"/><glyph glyph-name="eth" unicode="ð" d="M498 1264q-42 49-90.5 91.5T309 1434h148q79-52 151-138l219 64 21-66-197-57q69-100 112.5-225.5T807 743V281q0-62-23.5-117T719 68 623 3.5 506-20h-82q-62 0-117 23.5T211 68t-64.5 96T123 281v462q0 62 23.5 117t64.5 96 96 64.5 117 23.5h82q66 0 127-28-29 102-90 190l-228-65-18 65zm186-514q0 37-14 69.5T632 876t-56.5 38-69.5 14h-82q-37 0-69.5-14T298 876t-38-56.5-14-69.5V274q0-37 14-69.5t38-56.5 56.5-38T424 96h82q37 0 69.5 14t56.5 38 38 56.5 14 69.5v476z"/><glyph glyph-name="ntilde" unicode="ñ" d="M684 0v750q0 37-14 69.5T632 876t-56.5 38-69.5 14h-82q-37 0-69.5-14T298 876t-38-56.5-14-69.5V0H123v1024h41l67-104q42 57 105.5 90.5T475 1044h31q62 0 117-23.5t96-64.5 64.5-96T807 743V0H684zm-82 1319q42 0 64 32t22 83h94q0-45-11.5-84t-34-68-57-46-79.5-17q-48 0-84.5 18t-68 39-60 39-59.5 18q-42 0-63-31.5t-21-80.5h-94q0 44 11 83t33.5 68 57 45.5T332 1434q45 0 79.5-18t65-39.5T537 1337t65-18z"/><glyph glyph-name="ograve" unicode="ò" d="M807 281q0-62-23.5-117T719 68 623 3.5 506-20h-82q-62 0-117 23.5T211 68t-64.5 96T123 281v462q0 62 23.5 117t64.5 96 96 64.5 117 23.5h82q62 0 117-23.5t96-64.5 64.5-96T807 743V281zM684 750q0 37-14 69.5T632 876t-56.5 38-69.5 14h-82q-37 0-69.5-14T298 876t-38-56.5-14-69.5V274q0-37 14-69.5t38-56.5 56.5-38T424 96h82q37 0 69.5 14t56.5 38 38 56.5 14 69.5v476zm-444 684h204l164-246h-92z"/><glyph glyph-name="oacute" unicode="ó" d="M807 281q0-62-23.5-117T719 68 623 3.5 506-20h-82q-62 0-117 23.5T211 68t-64.5 96T123 281v462q0 62 23.5 117t64.5 96 96 64.5 117 23.5h82q62 0 117-23.5t96-64.5 64.5-96T807 743V281zM684 750q0 37-14 69.5T632 876t-56.5 38-69.5 14h-82q-37 0-69.5-14T298 876t-38-56.5-14-69.5V274q0-37 14-69.5t38-56.5 56.5-38T424 96h82q37 0 69.5 14t56.5 38 38 56.5 14 69.5v476zm-270 438h-92l163 246h205z"/><glyph glyph-name="ocircumflex" unicode="ô" d="M807 281q0-62-23.5-117T719 68 623 3.5 506-20h-82q-62 0-117 23.5T211 68t-64.5 96T123 281v462q0 62 23.5 117t64.5 96 96 64.5 117 23.5h82q62 0 117-23.5t96-64.5 64.5-96T807 743V281zM684 750q0 37-14 69.5T632 876t-56.5 38-69.5 14h-82q-37 0-69.5-14T298 876t-38-56.5-14-69.5V274q0-37 14-69.5t38-56.5 56.5-38T424 96h82q37 0 69.5 14t56.5 38 38 56.5 14 69.5v476zm47 438H608l-143 164-143-164H199l204 246h123z"/><glyph glyph-name="otilde" unicode="õ" d="M807 281q0-62-23.5-117T719 68 623 3.5 506-20h-82q-62 0-117 23.5T211 68t-64.5 96T123 281v462q0 62 23.5 117t64.5 96 96 64.5 117 23.5h82q62 0 117-23.5t96-64.5 64.5-96T807 743V281zM684 750q0 37-14 69.5T632 876t-56.5 38-69.5 14h-82q-37 0-69.5-14T298 876t-38-56.5-14-69.5V274q0-37 14-69.5t38-56.5 56.5-38T424 96h82q37 0 69.5 14t56.5 38 38 56.5 14 69.5v476zm-82 569q42 0 64 32t22 83h94q0-45-11.5-84t-34-68-57-46-79.5-17q-48 0-84.5 18t-68 39-60 39-59.5 18q-42 0-63-31.5t-21-80.5h-94q0 44 11 83t33.5 68 57 45.5T332 1434q45 0 79.5-18t65-39.5T537 1337t65-18z"/><glyph glyph-name="odieresis" unicode="ö" d="M807 281q0-62-23.5-117T719 68 623 3.5 506-20h-82q-62 0-117 23.5T211 68t-64.5 96T123 281v462q0 62 23.5 117t64.5 96 96 64.5 117 23.5h82q62 0 117-23.5t96-64.5 64.5-96T807 743V281zM684 750q0 37-14 69.5T632 876t-56.5 38-69.5 14h-82q-37 0-69.5-14T298 876t-38-56.5-14-69.5V274q0-37 14-69.5t38-56.5 56.5-38T424 96h82q37 0 69.5 14t56.5 38 38 56.5 14 69.5v476zm-489 481v153h153v-153H195zm387 0v153h153v-153H582z"/><glyph glyph-name="divide" unicode="÷" horiz-adv-x="1188" d="M1106 782V653H82v129h1024zm-651 318q0 29 11 54t30 44 44.5 30 53.5 11q29 0 54-11t44-30 30-44 11-54q0-28-11-53.5t-30-44.5-44-30-54-11q-28 0-53.5 11t-44.5 30-30 44.5-11 53.5zm0-764q0 29 11 54t30 44 44.5 30 53.5 11q29 0 54-11t44-30 30-44 11-54q0-28-11-53.5T692 238t-44-30-54-11q-28 0-53.5 11T496 238t-30 44.5-11 53.5z"/><glyph glyph-name="oslash" unicode="ø" horiz-adv-x="932" d="M61-61l109 178q-47 71-47 164v462q0 62 23.5 117t64.5 96 96 64.5 117 23.5h82q54 0 102-18t86-49l68 108h108L760 905q21-35 34-76t13-86V281q0-62-23.5-117T719 68 623 3.5 506-20h-82q-54 0-102 17t-86 48L170-61H61zm185 335v-15l2-15 385 630q-25 25-57.5 39.5T506 928h-82q-37 0-69.5-14T298 876t-38-56.5-14-69.5V274zm438 476q0 6-1 13t-1 13L297 147q25-24 57.5-37.5T424 96h82q37 0 69.5 14t56.5 38 38 56.5 14 69.5v476z"/><glyph glyph-name="ugrave" unicode="ù" d="M766 0l-68 104q-42-57-105-90.5T455-20h-31q-62 0-117 23.5T211 68t-64.5 96T123 281v743h123V274q0-37 14-69.5t38-56.5 56.5-38T424 96h82q37 0 69.5 14t56.5 38 38 56.5 14 69.5v750h123V0h-41zM199 1434h204l164-246h-92z"/><glyph glyph-name="uacute" unicode="ú" d="M766 0l-68 104q-42-57-105-90.5T455-20h-31q-62 0-117 23.5T211 68t-64.5 96T123 281v743h123V274q0-37 14-69.5t38-56.5 56.5-38T424 96h82q37 0 69.5 14t56.5 38 38 56.5 14 69.5v750h123V0h-41zM455 1188h-93l164 246h205z"/><glyph glyph-name="ucircumflex" unicode="û" d="M766 0l-68 104q-42-57-105-90.5T455-20h-31q-62 0-117 23.5T211 68t-64.5 96T123 281v743h123V274q0-37 14-69.5t38-56.5 56.5-38T424 96h82q37 0 69.5 14t56.5 38 38 56.5 14 69.5v750h123V0h-41zm-35 1188H608l-143 164-143-164H199l204 246h123z"/><glyph glyph-name="udieresis" unicode="ü" d="M766 0l-68 104q-42-57-105-90.5T455-20h-31q-62 0-117 23.5T211 68t-64.5 96T123 281v743h123V274q0-37 14-69.5t38-56.5 56.5-38T424 96h82q37 0 69.5 14t56.5 38 38 56.5 14 69.5v750h123V0h-41zM195 1231v153h153v-153H195zm387 0v153h153v-153H582z"/><glyph glyph-name="yacute" unicode="ý" horiz-adv-x="807" d="M289-410H170L352 88 20 1024h123l267-776 4-53 4 53 266 776h123zm104 1598h-92l164 246h205z"/><glyph glyph-name="thorn" unicode="þ" d="M807 281q0-62-23.5-117T719 68 623 3.5 506-20h-31q-69 0-128 28T246 86v-496H123v1844h123V938q42 50 101 78t128 28h31q62 0 117-23.5t96-64.5 64.5-96T807 743V281zM684 750q0 37-14 69.5T632 876t-56.5 38-69.5 14h-82q-37 0-69.5-14T298 876t-38-56.5-14-69.5V274q0-37 14-69.5t38-56.5 56.5-38T424 96h82q37 0 69.5 14t56.5 38 38 56.5 14 69.5v476z"/><glyph glyph-name="ydieresis" unicode="ÿ" horiz-adv-x="807" d="M289-410H170L352 88 20 1024h123l267-776 4-53 4 53 266 776h123zM154 1231v153h153v-153H154zm387 0v153h153v-153H541z"/><glyph glyph-name="hbar" unicode="ħ" d="M684 0v750q0 37-14 69.5T632 876t-56.5 38-69.5 14h-82q-37 0-69.5-14T298 876t-38-56.5-14-69.5V0H123v1188H0v102h123v144h123v-144h370v-102H246V938q42 50 101 78t128 28h31q62 0 117-23.5t96-64.5 64.5-96T807 743V0H684z"/><glyph glyph-name="Itilde" unicode="Ĩ" horiz-adv-x="457" d="M164 0v1434h129V0H164zm201 1729q42 0 64 31.5t22 82.5h94q0-45-11.5-84t-34.5-68-57.5-46-79.5-17q-47 0-84 18t-68.5 39.5-60 39.5-59.5 18q-42 0-63-31.5T6 1630h-94q0 45 11 83.5t33.5 67.5 57 45.5T94 1843q45 0 79.5-18t65-39 60.5-39 66-18z"/><glyph glyph-name="itilde" unicode="ĩ" horiz-adv-x="451" d="M164 0v1024h123V0H164zm198 1319q42 0 64.5 32t22.5 83h94q0-45-11.5-84t-34.5-68-57.5-46-79.5-17q-48 0-84.5 18t-68 39-60 39-59.5 18q-42 0-63-31.5T4 1221h-94q0 44 11 83t33.5 68 57 45.5T92 1434q45 0 79.5-18t65-39.5T297 1337t65-18z"/><glyph glyph-name="dotlessi" unicode="ı" horiz-adv-x="451" d="M164 0v1024h123V0H164z"/><glyph glyph-name="IJ" unicode="Ĳ" horiz-adv-x="1386" d="M164 0v1434h129V0H164zm1100 332q0-73-27.5-137T1161 83 1048.5 7.5 911-20h-41q-73 0-137 27.5T621 83t-75.5 112T518 332v57l129 21v-78q0-48 18-89.5t49.5-73 73-49.5 89.5-18h28q48 0 89.5 18t73 49.5 49.5 73 18 89.5v1102h129V332z"/><glyph glyph-name="ij" unicode="ĳ" horiz-adv-x="901" d="M154 1270v164h143v-164H154zM164 0v1024h123V0H164zm440 1270v164h144v-164H604zM737-109q0-62-23.5-116.5T649-321t-96-65-117-24v117q37 0 69.5 14t56.5 38 38 56.5 14 69.5v1139h123V-109z"/><glyph glyph-name="Jcircumflex" unicode="Ĵ" d="M807 332q0-73-27.5-137T704 83 592 7.5 455-20h-41q-73 0-137.5 27.5T164 83 88.5 195 61 332v57l129 21v-78q0-48 18-89.5t49.5-73 73-49.5 89.5-18h29q47 0 89 18t73 49.5 49 73 18 89.5v1102h129V332zm201 1265H885l-144 164-143-164H475l205 246h123z"/><glyph glyph-name="jcircumflex" unicode="ĵ" horiz-adv-x="451" d="M287-109q0-62-23.5-116.5T199-321t-96-65-117-24v117q37 0 69.5 14t56.5 38 38 56.5 14 69.5v1139h123V-109zm205 1297H369l-144 164-143-164H-41l205 246h123z"/><glyph glyph-name="kcommaaccent" unicode="ķ" d="M729 0L311 512l418 512h160L461 512 889 0H729zM164 0v1434h123V0H164zm297-604h-51v440h153z"/><glyph glyph-name="kgreenlandic" unicode="ĸ" d="M729 0L311 512l418 512h160L461 512 889 0H729zM164 0v1024h123V0H164z"/><glyph glyph-name="Ldotaccent" unicode="Ŀ" horiz-adv-x="842" d="M143 0v1434h129V123h549V0H143zm367 655v154h154V655H510z"/><glyph glyph-name="ldot" unicode="ŀ" horiz-adv-x="666" d="M164 0v1434h123V0H164zm287 655v154h153V655H451z"/><glyph glyph-name="Lslash" unicode="Ł" horiz-adv-x="842" d="M143 0v539L16 467v117l127 71v779h129V727l381 217V827L272 610V123h549V0H143z"/><glyph glyph-name="lslash" unicode="ł" horiz-adv-x="586" d="M231 0v578L61 487v117l170 90v740h123V760l170 90V733l-170-90V0H231z"/><glyph glyph-name="Nacute" unicode="Ń" horiz-adv-x="1135" d="M903 0L305 1044l-12 62V0H164v1434h67L829 389l13-61v1106h129V0h-68zM557 1597h-92l164 246h205z"/><glyph glyph-name="nacute" unicode="ń" d="M684 0v750q0 37-14 69.5T632 876t-56.5 38-69.5 14h-82q-37 0-69.5-14T298 876t-38-56.5-14-69.5V0H123v1024h41l67-104q42 57 105.5 90.5T475 1044h31q62 0 117-23.5t96-64.5 64.5-96T807 743V0H684zM414 1188h-92l163 246h205z"/><glyph glyph-name="OE" unicode="Œ" horiz-adv-x="1608" d="M950 332q0-59-18.5-112.5T881 123h645V0H715q-28-9-57-14.5T598-20H496q-73 0-137.5 27.5T246 83t-75.5 112T143 332v770q0 73 27.5 137t75.5 112 112.5 75.5T496 1454h102q31 0 60-5.5t57-14.5h811v-123H881q32-45 50.5-97.5T950 1102V778h447V655H950V332zm-129 770q0 48-18 89.5t-49 72.5-72.5 49-89.5 18h-90q-48 0-89.5-18t-73-49-49.5-72.5-18-89.5V332q0-48 18-89.5t49.5-73 73-49.5 89.5-18h90q48 0 89.5 18t72.5 49.5 49 73 18 89.5v770z"/><glyph glyph-name="oe" unicode="œ" horiz-adv-x="1493" d="M1370 281q0-62-23.5-117T1282 68t-96-64.5T1069-20h-82q-74 0-137 32.5T745 100q-42-55-103.5-87.5T506-20h-82q-62 0-117 23.5T211 68t-64.5 96T123 281v462q0 62 23.5 117t64.5 96 96 64.5 117 23.5h82q74 0 135.5-33T745 924q42 54 105 87t137 33h82q62 0 117-23.5t96-64.5 64.5-96 23.5-117V502H809V274q0-37 14-69.5t38-56.5 56.5-38T987 96h82q37 0 69.5 14t56.5 38 38 56.5 14 69.5v68l123-20v-41zM684 750q0 37-14 69.5T632 876t-56.5 38-69.5 14h-82q-37 0-69.5-14T298 876t-38-56.5-14-69.5V274q0-37 14-69.5t38-56.5 56.5-38T424 96h82q37 0 69.5 14t56.5 38 38 56.5 14 69.5v476zm563 0q0 37-14 69.5t-38 56.5-56.5 38-69.5 14h-82q-37 0-69.5-14T861 876t-38-56.5-14-69.5V598h438v152z"/><glyph glyph-name="Racute" unicode="Ŕ" horiz-adv-x="1069" d="M838 0L449 612H272V0H143v1434h455q73 0 137-27.5t112-75.5 75.5-112.5T950 1081V965q0-73-27.5-137.5T847 715t-112-75.5T598 612L987 0H838zm-17 1081q0 48-18 89.5t-49 73-72.5 49.5-89.5 18H272V735h320q48 0 89.5 18t72.5 49.5 49 73 18 89.5v116zm-358 516h-92l164 246h204z"/><glyph glyph-name="Rcommaaccent" unicode="Ŗ" horiz-adv-x="1069" d="M838 0L449 612H272V0H143v1434h455q73 0 137-27.5t112-75.5 75.5-112.5T950 1081V965q0-73-27.5-137.5T847 715t-112-75.5T598 612L987 0H838zm-17 1081q0 48-18 89.5t-49 73-72.5 49.5-89.5 18H272V735h320q48 0 89.5 18t72.5 49.5 49 73 18 89.5v116zM516-604h-51v440h153z"/><glyph glyph-name="rcommaaccent" unicode="ŗ" horiz-adv-x="588" d="M424 907q-37 0-69.5-14T298 855t-38-56.5-14-69.5V0H123v1024h41l67-104q42 57 105.5 90.5T475 1044h72V907H424zM174-604h-51v440h153z"/><glyph glyph-name="Rcaron" unicode="Ř" horiz-adv-x="1069" d="M838 0L449 612H272V0H143v1434h455q73 0 137-27.5t112-75.5 75.5-112.5T950 1081V965q0-73-27.5-137.5T847 715t-112-75.5T598 612L987 0H838zm-17 1081q0 48-18 89.5t-49 73-72.5 49.5-89.5 18H272V735h320q48 0 89.5 18t72.5 49.5 49 73 18 89.5v116zm-246 516H453l-205 246h123l143-164 143 164h123z"/><glyph glyph-name="rcaron" unicode="ř" horiz-adv-x="588" d="M424 907q-37 0-69.5-14T298 855t-38-56.5-14-69.5V0H123v1024h41l67-104q42 57 105.5 90.5T475 1044h72V907H424zm-47 281H254L49 1434h123l143-164 144 164h123z"/><glyph glyph-name="Scaron" unicode="Š" horiz-adv-x="1073" d="M950 332q0-73-29.5-137t-79-112-115-75.5T588-20H485q-73 0-138.5 27.5T231.5 83t-79 112T123 332v57l129 21v-78q0-48 19.5-89.5t52.5-73 76.5-49.5 91.5-18h90q48 0 91 18t76 49.5 52.5 73T821 332v43q0 74-29 123t-77 83.5T606.5 640 482 688t-124.5 53T249 813.5 172 920t-29 155v27q0 73 27.5 137t75.5 112 112.5 75.5T496 1454h92q73 0 137-27.5t112-75.5 75.5-112 27.5-137v-37l-129-21v58q0 48-18 89.5t-49 72.5-72.5 49-89.5 18h-80q-48 0-89.5-18t-73-49-49.5-72.5-18-89.5v-27q0-69 29-116t77-80.5 108.5-58 124.5-50 124.5-56 108.5-75T921 531t29-156v-43zM598 1597H475l-205 246h123l144-164 143 164h123z"/><glyph glyph-name="scaron" unicode="š" horiz-adv-x="950" d="M827 260q0-62-25-113.5T734 58 634.5.5 516-20h-82q-62 0-118.5 23.5t-99 64.5-68 96T123 281v41l123 20v-68q0-37 15.5-69.5T303 148t60-38 71-14h82q37 0 71 11t60.5 31.5 42 49.5 15.5 66q0 55-24 90t-63.5 58.5-90 39-103.5 31T320.5 508t-90 52.5T167 642t-24 122q0 62 24 113.5t65 88.5 95.5 57.5T444 1044h72q62 0 117-23.5t96-64.5 64.5-96T817 743v-4l-123-20v31q0 37-14 69.5T642 876t-56.5 38-69.5 14h-72q-37 0-69.5-11T318 885.5 280 836t-14-66q0-53 24-86.5t63.5-56.5 90-38.5 103-32 103-37.5 90-54 63.5-82.5T827 260zm-290 928H414l-205 246h123l143-164 143 164h123z"/><glyph glyph-name="Ydieresis" unicode="Ÿ" horiz-adv-x="950" d="M541 686V0H412v684L41 1434h139l295-596 295 596h139zm-336 954v154h153v-154H205zm387 0v154h153v-154H592z"/><glyph glyph-name="Zcaron" unicode="Ž" horiz-adv-x="971" d="M82 0v61l639 1250H102v123h787v-62L250 123h639V0H82zm465 1597H424l-205 246h123l143-164 144 164h123z"/><glyph glyph-name="zcaron" unicode="ž" horiz-adv-x="848" d="M82 0v55l516 852H102v117h664v-55L250 117h516V0H82zm403 1188H362l-204 246h123l143-164 143 164h123z"/><glyph glyph-name="florin" unicode="ƒ" horiz-adv-x="752" d="M317 743H133l17 117h184l43 303q8 56 36 105.5t70 86.5 94.5 58 108.5 21h113l-17-117H670q-31 0-59.5-11.5T559 1274t-38-47-19-58l-45-309h239l-16-117H440L317-139q-7-56-35.5-105.5t-70-86.5-93.5-58-108-21h-112l16 117H27q30 0 58 11.5t50.5 31.5 38 47 19.5 58z"/><glyph glyph-name="circumflex" unicode="ˆ" horiz-adv-x="942" d="M737 1188H614l-143 164-143-164H205l205 246h122z"/><glyph glyph-name="caron" unicode="ˇ" horiz-adv-x="942" d="M532 1188H410l-205 246h123l143-164 143 164h123z"/><glyph glyph-name="breve" unicode="˘" horiz-adv-x="952" d="M299 1446q0-34 13.5-60t37.5-43 56-25.5 69-8.5 69.5 8.5T601 1343t38 43 14 60h95q0-57-21.5-100.5t-58-72.5-86.5-44-107-15-106 15-85.5 44-57.5 72.5-21 100.5h94z"/><glyph glyph-name="dotaccent" unicode="˙" horiz-adv-x="563" d="M205 1231v153h153v-153H205z"/><glyph glyph-name="ring" unicode="˚" horiz-adv-x="834" d="M205 1358q0 44 16.5 82.5t45 67.5 67 46 82.5 17 82.5-17 67.5-46 46-67.5 17-82.5-17-82.5-46-67-67.5-45T416 1147t-82.5 16.5-67 45-45 67T205 1358zm102 0q0-22 8.5-42.5T339 1280t35-24 42-9q23 0 43 9t35 24 23.5 35.5 8.5 42.5q0 23-8.5 43.5T494 1437t-35 24-43 9q-22 0-42-9t-35-24-23.5-35.5-8.5-43.5z"/><glyph glyph-name="ogonek" unicode="˛" horiz-adv-x="713" d="M365 0q-18-32-33-66-13-29-23-65.5T299-203q0-60 28.5-89.5T406-322q22 0 40 6.5t32 14.5q16 10 30 22v-71q-16-16-36-27-17-10-41.5-18t-55.5-8q-35 0-66 11.5T255-358t-36.5 54.5T205-229q0 47 13 88t29 73q18 37 42 68h76z"/><glyph glyph-name="tilde" unicode="˜" horiz-adv-x="1042" d="M657 1319q42 0 64 32t22 83h95q0-45-11.5-84t-34.5-68-57.5-46-79.5-17q-48 0-84.5 18t-68 39-60 39-59.5 18q-42 0-63-31.5t-21-80.5h-94q0 44 11 83t33.5 68 57 45.5T387 1434q45 0 79.5-18t65-39.5T592 1337t65-18z"/><glyph glyph-name="hungarumlaut" unicode="˝" horiz-adv-x="1098" d="M297 1188h-92l164 246h204zm319 0h-92l164 246h205z"/><glyph glyph-name="dotaccentcmb" unicode="̇" horiz-adv-x="563" d="M205 1231v153h153v-153H205z"/><glyph glyph-name="endash" unicode="–" horiz-adv-x="1126" d="M1024 743V627H102v116h922z"/><glyph glyph-name="emdash" unicode="—" horiz-adv-x="2048" d="M1946 743V627H102v116h1844z"/><glyph glyph-name="quoteleft" unicode="‘" horiz-adv-x="399" d="M246 1434h51V993H143z"/><glyph glyph-name="quoteright" unicode="’" horiz-adv-x="399" d="M195 993h-52v441h154z"/><glyph glyph-name="quotesinglbase" unicode="‚" horiz-adv-x="440" d="M195-287h-52v441h154z"/><glyph glyph-name="quotedblleft" unicode="“" horiz-adv-x="645" d="M451 1434h51V993H348zm-246 0h51V993H102z"/><glyph glyph-name="quotedblright" unicode="”" horiz-adv-x="645" d="M195 993h-52v441h154zm245 0h-51v441h154z"/><glyph glyph-name="quotedblbase" unicode="„" horiz-adv-x="645" d="M195-287h-52v441h154zm245 0h-51v441h154z"/><glyph glyph-name="dagger" unicode="†" horiz-adv-x="926" d="M397 1010l-6 424h144l-7-424 316 22V887l-318 22-16-1319h-94L397 909 82 887v145z"/><glyph glyph-name="daggerdbl" unicode="‡" horiz-adv-x="926" d="M401 1010l-10 424h144l-11-424 320 22V887l-322 22-10-399 8-395 324 22V-8L524 12l11-422H391l10 424L82-8v145l321-22 11 393-11 401-321-22v145z"/><glyph glyph-name="bullet" unicode="•" horiz-adv-x="958" d="M123 709q0 74 28 138.5t76.5 113T341 1037t138 28q74 0 139-28t113.5-76.5 76.5-113T836 709t-28-139-76.5-113.5T618 380t-139-28q-73 0-138 28t-113.5 76.5T151 570t-28 139z"/><glyph glyph-name="ellipsis" unicode="…" horiz-adv-x="1485" d="M143 0v154h154V0H143zm523 0v154h153V0H666zm522 0v154h153V0h-153z"/><glyph glyph-name="guilsinglleft" unicode="‹" horiz-adv-x="623" d="M459 84L82 467l377 383 41-41-250-342 250-342z"/><glyph glyph-name="guilsinglright" unicode="›" horiz-adv-x="623" d="M123 125l250 342-250 342 41 41 377-383L164 84z"/><glyph glyph-name="fraction" unicode="⁄" horiz-adv-x="936" d="M2 0l817 1434h115L117 0H2z"/><glyph glyph-name="Euro" unicode="€" horiz-adv-x="1155" d="M354 553V332q0-48 18-89.5t49.5-73 73-49.5 89.5-18h90q48 0 89.5 18t72.5 49.5 49 73 18 89.5v57l129-20v-37q0-73-27.5-137T929 83 817 7.5 680-20H578q-73 0-137.5 27.5T328 83t-75.5 112T225 332v221H82v102h143v123H82v103h143v221q0 73 27.5 137t75.5 112 112.5 75.5T578 1454h102q73 0 137-27.5t112-75.5 75.5-112 27.5-137v-37l-129-21v58q0 48-18 89.5t-49 72.5-72.5 49-89.5 18h-90q-48 0-89.5-18t-73-49-49.5-72.5-18-89.5V881h473l-59-103H354V655h342l-59-102H354z"/><glyph glyph-name="trademark" unicode="™" horiz-adv-x="1475" d="M1227 758v379l-185-379h-55l-184 377V758H696v676h64l254-519 256 519h61V758h-104zm-834 581V758H287v581H82v95h516v-95H393z"/><glyph glyph-name="minus" unicode="−" horiz-adv-x="1188" d="M1106 782V653H82v129h1024z"/><glyph glyph-name="dotlessj" unicode="" horiz-adv-x="451" d="M287-109q0-62-23.5-116.5T199-321t-96-65-117-24v117q37 0 69.5 14t56.5 38 38 56.5 14 69.5v1139h123V-109z"/><glyph glyph-name="commaaccent" unicode="" horiz-adv-x="440" d="M195-604h-52v440h154z"/><glyph glyph-name="foundryicon" horiz-adv-x="1753" d="M1290 84q-91-57-196-90T874-39q-104 0-200 27T494.5 64t-152 118.5-117 153.5T150 517t-27 202q0 102 25.5 195t65.5 163.5 89 112 96 41.5q48 0 73.5-27.5T498 1126q0-29-9-82.5T466.5 925t-29-133-29-125.5T386 569t-9-47q0-12 10.5-17t24.5-5q17 0 49 5t65 13 59.5 17 30.5 18q1 4 6.5 28t14.5 62 19.5 86.5 21.5 101T700 936t19 100.5 13 85.5 5 60q0 44-18.5 75.5t-50 52T595 1340t-89 10q-5 0-12-.5t-13-1.5l-14-2-4 6q90 57 193 90t218 33q105 0 202-27t181-76 152.5-118.5T1527 1100t76-181 27-202q0-102-25.5-195T1539 358.5t-89-112-96-41.5q-48 0-73.5 27.5T1255 309q0 29 9 83t22.5 118.5 29 133 29 125.5 22.5 96.5 9 45.5q0 14-10.5 19.5T1341 936q-17 0-49-5t-65-13-59-17.5-31-17.5q-1-5-10.5-45.5t-23-100.5-28.5-132-28.5-140-22-124.5-8.5-86.5q0-44 18.5-75.5t50-52T1158 96t89-10h12.5l12.5 1q7 1 14 1l4-4zM934 459q2 10 11.5 52T968 611t27.5 123.5 27 123 20.5 99 8 51.5q0 11-9 14.5t-24 3.5-42.5-3.5-57.5-9.5-57-15-42-21q-2-10-11.5-52T785 825t-27.5-123.5-27-123-20.5-99-8-51.5q0-11 9-15.5t24-4.5 42.5 3.5T835 422t57 16 42 21z"/><glyph glyph-name="grave.cap" horiz-adv-x="778" d="M205 1843h205l163-246h-92z"/><glyph glyph-name="acute.cap" horiz-adv-x="778" d="M297 1597h-92l164 246h204z"/><glyph glyph-name="caron.cap" horiz-adv-x="942" d="M532 1597H410l-205 246h123l143-164 143 164h123z"/><glyph glyph-name="circumflex.cap" horiz-adv-x="942" d="M737 1597H614l-143 164-143-164H205l205 246h122z"/><glyph glyph-name="ring.cap" horiz-adv-x="834" d="M205 1792q0 44 16.5 82.5t45 67.5 67 46 82.5 17 82.5-17 67.5-46 46-67.5 17-82.5-17-82.5-46-67-67.5-45T416 1581t-82.5 16.5-67 45-45 67T205 1792zm102 0q0-22 8.5-42t23.5-35.5 35-24.5 42-9q23 0 43 9t35 24.5 23.5 35.5 8.5 42q0 23-8.5 43.5t-23.5 36-35 24.5-43 9q-22 0-42-9t-35-24.5-23.5-36-8.5-43.5z"/><glyph glyph-name="dieresis.cap" horiz-adv-x="950" d="M205 1640v154h153v-154H205zm387 0v154h153v-154H592z"/><glyph glyph-name="tilde.cap" horiz-adv-x="1069" d="M657 1729q42 0 64 31.5t22 82.5h95q0-45-11.5-84t-34.5-68-57.5-46-79.5-17q-48 0-84.5 18t-68 39.5-60 39.5-59.5 18q-42 0-63-31.5t-21-81.5h-94q0 45 11 83.5t33.5 67.5 57 45.5T387 1843q45 0 79.5-18t65-39 60.5-39 65-18z"/></font>
</defs>
</svg>
