<svg xmlns="http://www.w3.org/2000/svg" width="914" height="46.239" viewBox="0 0 914 46.239"><g transform="translate(-119 -35)"><g transform="translate(119 35)"><path d="M0,0V30.2c8.9,1.7,17.9,3.6,23.5,7.1.2-.2.2-.4.6-.4s1.2.5,1.2.8v.9l.4.3a12.716,12.716,0,0,1,3.4.2,3.529,3.529,0,0,0-.3-1.4,1.057,1.057,0,0,1,.5-1.2c.1-.1.3-.1.5-.2a4.345,4.345,0,0,1,1,2.2v.4l3.1-1.1.8,1.8a9.51,9.51,0,0,0,1.5,2c6.6-.1,13.1-.1,19.7,0,.4-.2.8-.4,1.3-.6,1.1-.3,2.1-.7,3.1-1a.215.215,0,0,0,.2-.2v-.4s.1.1,0-.1-.2-.5-.5-.5c-.3-.1-.6-.1-.9-.2l-1.7-.2a6.26,6.26,0,0,1-3,1c-2,.3-4,.4-6,.6a25.35,25.35,0,0,1-2.9-.4c-.7-.1-.7-.5-.7-.8,0-.1,0-.2.1-.2.1-.1.2-.1.3-.2a.6.6,0,0,1,.4-.1h3.5c2,0,2.7-.4,2-1.5a.758.758,0,0,1-.2-.4,2.181,2.181,0,0,1,.5-.4,1.884,1.884,0,0,1,.8-.2,5.822,5.822,0,0,1,1.9-.3c2.4-.1,4.6-.5,7-.6a19.734,19.734,0,0,0,2.6-.7c.8-.3,1-1,.4-1.2a7.551,7.551,0,0,1-2.7-1.3,6.47,6.47,0,0,0-.8-.9l1.4-.7a1.7,1.7,0,0,0,1-.8,4.053,4.053,0,0,1,.5-.9,1.222,1.222,0,0,0,.4-.9,1.382,1.382,0,0,0-.5-.9c-.4-.6,0-1.1.6-1.2a2.7,2.7,0,0,1,1.7.3c1.1.4,1.4.3,2-.5a4.259,4.259,0,0,1,2.2-1.5c.7-.2.9-.4.5-.8a1.936,1.936,0,0,1-.6-1.3.726.726,0,0,0-.6-.6,2.375,2.375,0,0,0-1.2-.3,4.4,4.4,0,0,1-1-.2c-1.7-.3-1.9-.6-1.1-.9s1.7-.5,2.5-.8c.5-.2,1-.4,1.4-.6.7-1.6,3.1-2.3,6.5-2.4.3-.1.6-.1.9-.2-.2-.1-.3-.3-.6-.4-.9-.2-2.1-.5-2.7-.6-.5-.1-1-.5-1-.7a16.637,16.637,0,0,1,1.3-2.7,1.486,1.486,0,0,0-.3-1.4c-.2-.5.1-.7,1.9-.5l2,.2a13.421,13.421,0,0,0,4-.1c1.3-.3,3.1-.1,4-.3l2.7-.6A2.066,2.066,0,0,1,90.1,8a18.539,18.539,0,0,0,4.8-.8,3.5,3.5,0,0,1,2.6.3,7.494,7.494,0,0,0,1.6.5,10.713,10.713,0,0,1,2.7.6c1.3.7,3.2,1.1,4.5,1.8a6.611,6.611,0,0,0,2.5.7c1,.1,2,.2,3,.4.2,0,.4.1.6.1q.3.15.3.3a.367.367,0,0,1-.1.3.764.764,0,0,1-.5.2c-.7.3-.9.5-.2.7a4,4,0,0,0,1.9.2l3-.3a6.8,6.8,0,0,0,2-.2,3.711,3.711,0,0,1-.2-.9c0-.2.1-.3.2-.3a2.6,2.6,0,0,1,2,0l1.5.6a2.767,2.767,0,0,0,1.6.5c2,.2,4,.5,6,.7a13.4,13.4,0,0,0,2-.1,13.408,13.408,0,0,1,4,0c1.6.2,3.2.5,4.8.7a.675.675,0,0,1,.6.4,1.1,1.1,0,0,1,0,.8,1.9,1.9,0,0,1-.8.7,11.789,11.789,0,0,1-3,.9,10.279,10.279,0,0,1-3.5,0,4.441,4.441,0,0,0-2,.1,13.421,13.421,0,0,1-4,.1,6.7,6.7,0,0,0-2,0c-1.4.1-2.7.2-4,.4-.8.1-1.7.7-1.5,1a.918.918,0,0,0,.6.4,29.282,29.282,0,0,0,6.7,1l3-.3a1.387,1.387,0,0,1,.9,0,2.92,2.92,0,0,1,.9.2.918.918,0,0,1,.6.4.764.764,0,0,1,.2.5,2.965,2.965,0,0,0,1.5,1.7,1.348,1.348,0,0,0,1.6,0,.536.536,0,0,0,.3-.4,2.92,2.92,0,0,0-.2-.9c-.1-.2-.3-.4-.1-.5a2.92,2.92,0,0,1,.9-.2h1l1,.1a25.351,25.351,0,0,1,2.9.4q1.35.45,2.4.9a27.53,27.53,0,0,1,5-.2,3.9,3.9,0,0,0,2.7-.4,3.773,3.773,0,0,1,1.6-.5,6.054,6.054,0,0,1,1.9,0c2.3.3,4.6.5,7,.7h0a9.253,9.253,0,0,0,2.9-.2c.6-.1,1.2-.3,1.8-.4a9.9,9.9,0,0,1,3-.2,13.552,13.552,0,0,0,2,.2,10.77,10.77,0,0,0,4-.1c.9-.2,1.8-.4,2.8-.6a10.479,10.479,0,0,1,2.5-.1,8.648,8.648,0,0,1,2.3.6c.2.1.5.2.7.3a7.517,7.517,0,0,0,2.4.8l5,.5a3.787,3.787,0,0,0,1.5,0,3.374,3.374,0,0,0,1.2-.4,4.672,4.672,0,0,1,2.4-.7,20.813,20.813,0,0,0,5-.1,6.7,6.7,0,0,1,2,0c2.3.3,4.6.5,6.9.8a10.073,10.073,0,0,0,3-.1,15.062,15.062,0,0,1,3-.1l1,.1c2.3.3,4.6.6,7,.7,2-.1,4-.3,6-.5a15.037,15.037,0,0,1,3,0,15.037,15.037,0,0,0,3,0c1.6-.3,3.4-.2,5-.4a15.037,15.037,0,0,1,3,0c2.3.2,4.6.5,7,.7a12.75,12.75,0,0,0,2-.1,17.85,17.85,0,0,1,4-.1,6.7,6.7,0,0,0,2,0,13.421,13.421,0,0,1,4-.1h2c.7,0,1.4-.2,2-.2.6.1,1.1.4,1.6.5h.9a13.421,13.421,0,0,1,4-.1,10.073,10.073,0,0,0,3-.1,15.037,15.037,0,0,1,3,0,20.573,20.573,0,0,0,7-.1c2.4,0,4.8-.5,7.2-.2a6.56,6.56,0,0,0,2-.1,13.408,13.408,0,0,1,4,0l6,.6a15.062,15.062,0,0,0,3-.1l2-.1h1a13.52,13.52,0,0,0,4-.3c.6-.1,1.2-.3,1.9-.4a10.073,10.073,0,0,1,3-.1c2,.2,3.9.5,5.9.7a10.073,10.073,0,0,0,3-.1,17.851,17.851,0,0,1,4-.1,6.56,6.56,0,0,0,2-.1,17.9,17.9,0,0,1,4-.2,17.851,17.851,0,0,0,4-.1,7.494,7.494,0,0,0,1.6.5,6.054,6.054,0,0,0,1.9,0c1-.1,2-.2,3-.2.3,0,.7-.1,1-.1a17.851,17.851,0,0,1,4-.1,20.908,20.908,0,0,0,5,0,6.7,6.7,0,0,1,2,0c1.7.2,3.3.3,5,.5a6.7,6.7,0,0,0,2,0,20.814,20.814,0,0,1,5-.1c1,.1,2,.2,3,.2.7,0,1.4-.1,2-.1a8.447,8.447,0,0,1,1.7.5,2.769,2.769,0,0,0,.9.1,14,14,0,0,1,5,0,17.851,17.851,0,0,0,4,.1c1.3-.2,2.7-.2,4-.3a17.851,17.851,0,0,1,4-.1,36.412,36.412,0,0,0,8.1.3,6.7,6.7,0,0,1,2,0l5,.5a13.544,13.544,0,0,1,4.3,1.2,3.992,3.992,0,0,0,1.3.4,7.519,7.519,0,0,0,1.5,0c1.2-.2,2.5-.5,3.7-.7a2.769,2.769,0,0,1,.9.1l.3.1c1.7.4,1.8.5,3.2.1a14.524,14.524,0,0,1,5.9-.3,13.408,13.408,0,0,0,4,0,13.408,13.408,0,0,1,4,0c3,.3,6,.7,8.9,1a13.408,13.408,0,0,0,4,0,6.7,6.7,0,0,1,2,0c3,.3,6,.6,8.9,1a10.073,10.073,0,0,0,3-.1,6.054,6.054,0,0,1,1.9,0,4.8,4.8,0,0,1,1.7.5,6.611,6.611,0,0,0,2.5.7c1,.1,2,.2,3,.4a3.4,3.4,0,0,0,1,.1,2.388,2.388,0,0,0,.9-.2c.2,0,0-.3,0-.4-.1-.6.3-.9,1.4-.8h2.8a15.037,15.037,0,0,0,3,0c1.6-.2,3.3-.3,5-.5a13.408,13.408,0,0,1,4,0,20.908,20.908,0,0,0,5,0,6.7,6.7,0,0,1,2,0,13.421,13.421,0,0,0,4-.1,15.037,15.037,0,0,1,3,0c2.3.3,4.5.5,6.9.8a20.908,20.908,0,0,0,5,0,6.7,6.7,0,0,1,2,0l6.9.8a2.92,2.92,0,0,1,.9.2.918.918,0,0,1,.6.4c.1.1-.4.2-.5.4-1.1.7-.7,1,1.1,1.2a7.575,7.575,0,0,0,3,0c1.5-.4,3-.8,4.5-1.1.6-.1,1.3-.2,1.9-.3a3.083,3.083,0,0,1,1-.1c4,.4,7.9.9,11.9,1.3a6.7,6.7,0,0,0,2,0,6.473,6.473,0,0,1,2.4-.1,4.756,4.756,0,0,1,2.1.7,3.8,3.8,0,0,0,1.7.5,4.084,4.084,0,0,0,1.9-.1,3.3,3.3,0,0,1,1.4,0,3.374,3.374,0,0,1,1.2.4,8.446,8.446,0,0,0,1.7.5,5.845,5.845,0,0,0,1.9-.2c.9-.2,1.8-.4,2.8-.6a12.749,12.749,0,0,1,2-.1,20.813,20.813,0,0,0,5-.1,3.4,3.4,0,0,1,1-.1c3.6.4,7.4.7,10.9,1.2a7.119,7.119,0,0,1,3.2,1.1,3.374,3.374,0,0,0,1.2.4,6.6,6.6,0,0,0,1.4.1c2.1-.5,4.7-.3,6.9-.8a9.738,9.738,0,0,0,2.4-.2,3.932,3.932,0,0,0,1.7-.9,7.494,7.494,0,0,1,1.6-.5,7.017,7.017,0,0,1,2.9-.3c1.7.2,3.3.4,5,.5a3.768,3.768,0,0,1,1.6.4,1.549,1.549,0,0,1,.8.8,9.73,9.73,0,0,0,3.8.1,13.335,13.335,0,0,1,4-.1,6.7,6.7,0,0,0,2,0,6.559,6.559,0,0,1,2-.1,6.713,6.713,0,0,1,1.5.6,4.776,4.776,0,0,0,1.8.4,25.351,25.351,0,0,1,2.9.4,1.884,1.884,0,0,1,.8.2c.2.1.5.2.6.4a4.877,4.877,0,0,1-.7.3,2.769,2.769,0,0,1-.9.1,5.23,5.23,0,0,0-1.8.3,3.113,3.113,0,0,0,.6.4,2.388,2.388,0,0,0,.9.2l1,.1a3.768,3.768,0,0,1,1.6.4.938.938,0,0,1,.6.8,12.909,12.909,0,0,0,4.8,0,6.7,6.7,0,0,1,2,0,13.408,13.408,0,0,0,4,0c.9-.2,1.4-.1,1.4.3,0,.2-.1.3-.3.4a.918.918,0,0,1-.6.4,2.769,2.769,0,0,1-.9.1c-1,0-2-.2-3-.2a.9.9,0,0,0-.5.1.756.756,0,0,1-.4.1c-.3.2,0,.4.8.6a28.856,28.856,0,0,0,2.9.4c1,.1,2,.3,2.9.4a7.494,7.494,0,0,1,1.6.5c1.4.4,1.7.5,2.4,0a3.128,3.128,0,0,1,1-.5,5.9,5.9,0,0,1,1.4-.2,5.822,5.822,0,0,0,1.9-.3,1.082,1.082,0,0,0-.5-.4,1.884,1.884,0,0,0-.8-.2l-3.9-.6c-.3-.1-.5-.1-.7-.3-.2-.1-.3-.3-.4-.4-.1-.2,0-.3.1-.5a2.181,2.181,0,0,1,.5-.4,12.443,12.443,0,0,0,2-1,2.594,2.594,0,0,1,1.4-.6,6.054,6.054,0,0,1,1.9,0,13.408,13.408,0,0,0,4,0,12.75,12.75,0,0,1,2-.1c4,.4,8,.8,11.9,1.4.8.1.9.5.6.6a2.92,2.92,0,0,1-.9.2,27.1,27.1,0,0,0-7-.2h-.9a4.877,4.877,0,0,1-.7-.3c-.1-.1-.2-.1-.3-.2a.749.749,0,0,0-.5-.1h-.5c-.2,0-.3.1-.4.1-1.6.4-3.3,0-4.9,0a2.388,2.388,0,0,0-.9.2,1.38,1.38,0,0,0,.4.3,1.884,1.884,0,0,0,.8.2l6.9.9a15.038,15.038,0,0,0,3,0,15.038,15.038,0,0,1,3,0l3,.3a3.788,3.788,0,0,0,1.5,0,2.812,2.812,0,0,0,1.1-.5,8.044,8.044,0,0,1,3.1-1.1,12.31,12.31,0,0,1,2-.2l6,.6h2c1.7-.1,2,0,2.5.4a7.119,7.119,0,0,0,1.7,1.1,8.27,8.27,0,0,0,3.6.7,13.552,13.552,0,0,0,2-.2c1.3-.2,2.5-.5,3.7-.7,1,0,2-.1,3-.2a13.421,13.421,0,0,1,4-.1,6.079,6.079,0,0,0,1.9-.1,3.672,3.672,0,0,0,1.4-.6,6.891,6.891,0,0,1,.8-.3,1.7,1.7,0,0,1,1,0c1.1,0,1.5.2,1.8.9a5.045,5.045,0,0,0,.7,1.3c.1.3-.2.5-1,.7a2.92,2.92,0,0,1-.9.2,9.9,9.9,0,0,1-3,.2c-2-.2-4-.5-6-.7a12.75,12.75,0,0,0-2-.1c-.3,0-.9.1-.9.2a.4.4,0,0,0,.2.4,1.445,1.445,0,0,0,.7.2c2.9.4,5.9.7,8.9,1.1a17.851,17.851,0,0,0,4-.1,10.454,10.454,0,0,1,2.5,0,8.648,8.648,0,0,1,2.3.6,9.385,9.385,0,0,0,1.5.6,13.552,13.552,0,0,0,2-.2c.7-.1,1.4,0,2-.1a10.377,10.377,0,0,0,1.2-.3,2.169,2.169,0,0,0,.7-.6.761.761,0,0,0,.1-.9,2.234,2.234,0,0,0-1.2-.7,4.877,4.877,0,0,1-.7-.3c-.2-.1-.3-.3-.4-.4.3-.1.6-.1,1-.2a12.711,12.711,0,0,1,5.6.9c.8.3.5.8-1,1.5-.8.4-.5.7,1,.9a13.408,13.408,0,0,0,4,0l1.8-.4a3.083,3.083,0,0,1,1-.1c.3,0,.7-.1.9,0,.1,0,.2.1.3.2a.31.31,0,0,1,.1.2s0,.2-.1.2c-.1.1-.2.1-.3.2-.6.3-1.5.7-2.1,1s-.7,1.1,0,1.2a11.076,11.076,0,0,0,1.9.2c.3,0,.6-.1,1-.1a12.31,12.31,0,0,1,2-.2,5.867,5.867,0,0,0,2.3-.4c.6-.3,1.1-.6,1.2-1.1.5-.7,1.5-.9,3.1-.7l3,.3a9.254,9.254,0,0,0,2.9-.2c1.9-.4,2-.7.5-1.2-.5-.2-1.1-.4-1.5-.6a5.675,5.675,0,0,0-2.4-.8l-27.6-3.3-4.9-.6q-2.7-.3-.6-1.2a6.186,6.186,0,0,0,1.9-1.6,2.091,2.091,0,0,0,.6-.4,2.768,2.768,0,0,1,1.3-.3,2.5,2.5,0,0,1,1.3.3h0c.6.2.7.3-.2.7-1,.5-.5.9.1,1s1.3.2,1.9.3L750,35a14,14,0,0,0,5,0,12.75,12.75,0,0,1,2-.1h0c1.1-.1,1.2-.1,1.1-1-.1-.4.1-.5,1.1-.5a42.33,42.33,0,0,1,5,.5,6.638,6.638,0,0,1,2.6.6l-.9.7c-.2.1-.5.3-.5.3a2.767,2.767,0,0,0,1.6.5c6.2.8,12.5,1.6,18.7,2.4,2.3.3,4.7.5,7,.7,1,0,2-.1,3-.2l2.4.9c4.3.5,8.5,1.1,12.8,1.7a6.7,6.7,0,0,0,2,0,6.381,6.381,0,0,1,2.4-.1,6.463,6.463,0,0,1,2.1.6,5,5,0,0,0,2.8,0c.5-.2.9-.5,1.4-.7a3.211,3.211,0,0,1,1.4-.1,2.768,2.768,0,0,1,1.3.3,13.434,13.434,0,0,1,2.6,1.9c.5.5.2.7-1.5.7a10.03,10.03,0,0,0-3.6.7c-.2.1-.4.2-.4.3.1.2.4.3.6.4a3.083,3.083,0,0,0,1,.1,26.417,26.417,0,0,0,2.9-.2l1.5.6a6.883,6.883,0,0,0,2.5.2,7.129,7.129,0,0,0,2.3-.5l-.7-.5.7-.1c-1.8-.4-2.4-1-1.8-1.9a10.812,10.812,0,0,0,1.1-1.8,1.44,1.44,0,0,1,.7-.6,2.375,2.375,0,0,1,1.2-.3,4.438,4.438,0,0,1,1.3.2,1.079,1.079,0,0,1,.7.6c.1.3.1.7.7.8a6.054,6.054,0,0,0,1.9,0,6.7,6.7,0,0,1,2,0c.6.1,1.3.2,1.9.3a1.234,1.234,0,0,1,.8.5c1.1,0,2.3.1,3.4.2.2-.1.5-.1.8-.2a13.552,13.552,0,0,1,2,.2,3.553,3.553,0,0,1,1,.2c.5-.7,1.2-1.4,1.8-2.1l.6-.7-4.1.2a2.354,2.354,0,0,1-.2-.8c.3-1.8,1.6-3.5,3.7-5a19.42,19.42,0,0,1-2.4-.2l-2.5-.5,1.8-.8a1.365,1.365,0,0,1-.6-1v-.9h2.1a2.436,2.436,0,0,0,1.5-.5,6.117,6.117,0,0,1,1.2-.5,4.253,4.253,0,0,0-1.1-.2l-2.8-.4,1.8-.9c.3-.2.6-.3.9-.5a10.91,10.91,0,0,1,1.1-.6,4.948,4.948,0,0,1-2.1-1.5,2.2,2.2,0,0,1-.6-1.8,5.662,5.662,0,0,1,.3-1.8,14.818,14.818,0,0,0,.3-1.9,2.769,2.769,0,0,0-1.2-2.5l-.5-.4.7-.4a6.971,6.971,0,0,1,3.3-.7,11.7,11.7,0,0,1,4.8,1.1,5.024,5.024,0,0,0,1.3.5l3,.3-1.8,1A1.78,1.78,0,0,0,859,21c0,.5.9.9,2.6,1.2l1.1.2.7.4v.6a2.887,2.887,0,0,1-1.4,2c-.2.2-.4.3-.6.5a2.768,2.768,0,0,1,1.3.3,1.456,1.456,0,0,1,.9.6,1.949,1.949,0,0,0,.8.1c.2-2.1,7.2-4,10.2-4.7l2.6-.6.8,1.1.1.2a10.9,10.9,0,0,1,2.6-.3,1.382,1.382,0,0,1-.6-1.1,2.353,2.353,0,0,1,.2-.8l.4-.6,1.6-.1a15.886,15.886,0,0,1,3.8.2,16.894,16.894,0,0,1,3.4.9,5.783,5.783,0,0,0,1.4.5,9.15,9.15,0,0,0,1.7.1h1.5l-.4-1.1,1.7,1.1h.5l-.2.2,3.6,2.4a13.434,13.434,0,0,0,3.2,1.4h1.2l.5-.6,1.5.6a34.832,34.832,0,0,0,7.3-.6,1.873,1.873,0,0,1-.8,1.4,6.908,6.908,0,0,1-2.3.9c1.4.6,2.7,1.2,4,1.8V0ZM33.8,17.1c0,.1-.1.2-.2.3a.758.758,0,0,1-.4.2c-.1,0-.4.1-.6.1a10.764,10.764,0,0,1-3.6-.3,3.329,3.329,0,0,1-.6-.3c.4-.2.9-.4,1.4-.6a6.1,6.1,0,0,1,2.7-.3c.7.1,1.4.2,1.4.5A.756.756,0,0,0,33.8,17.1ZM63,18a8.265,8.265,0,0,1-.7,1.3,2.3,2.3,0,0,0,0,3.1c.1.2,0,.3-.1.5a4.875,4.875,0,0,1-.7.3,1.735,1.735,0,0,1-1.4-.3,2.181,2.181,0,0,1-.5-.4,1.488,1.488,0,0,1-.4-1.5l1-2c.3-.3.7-.9,1.2-1.4.1-.1.2-.1.3-.2a4.331,4.331,0,0,1,.5-.1.845.845,0,0,1,.6.2C63.1,17.7,63.1,17.8,63,18ZM78.4,8.3a9.892,9.892,0,0,1-3.5-.5,2.186,2.186,0,0,1-.5-.3l.6-.3c2.6-.8,2.7-.7,4.1.5C79.5,8.1,79.3,8.3,78.4,8.3ZM81.9,5a13.576,13.576,0,0,0-2.9.3,7.569,7.569,0,0,1-1.5.1A2.5,2.5,0,0,1,76.2,5c-.5-.2-.4-.5,0-.8a3.112,3.112,0,0,1,.6-.4,2.92,2.92,0,0,1,.9-.2h1l3.2.4h-.2c.3,0,.6.1.9.1a.918.918,0,0,1,.6.4C83.3,4.8,82.6,5,81.9,5ZM92.5,6.2h-.9a2.354,2.354,0,0,1-.8-.2,2.186,2.186,0,0,1-.5-.3,2,2,0,0,1,.9-.2h1a1.884,1.884,0,0,1,.8.2c.2.1.4.2.4.4C93,6.1,92.8,6.2,92.5,6.2Zm16.6-.8c-.7-.1-1.2-.2-1-.5a.855.855,0,0,1,.6-.3l1.8-.3c.2.1.7.1.7.2a.758.758,0,0,1,.2.4c0,.1-.2.3-.4.4a1.884,1.884,0,0,1-.8.2A4.907,4.907,0,0,0,109.1,5.4Zm39.7,4.1c0,.1-.1.1-.2.2s-.2.1-.4.1a4.331,4.331,0,0,1-.5.1,3.083,3.083,0,0,1-1,.1c-1.6-.1-3.3-.3-5-.5a12.637,12.637,0,0,0-3.9.2c-.6.1-1.2.3-1.9.4a13.119,13.119,0,0,1-4,.2l-1.7-.2L129,9.9a12.745,12.745,0,0,0-3.9,0,13.408,13.408,0,0,1-4,0l-3.9-.5a4.517,4.517,0,0,0-2,.1,13.451,13.451,0,0,1-4.9,0,4.875,4.875,0,0,1-.7-.3c-.1-.1-.1-.2,0-.2,0-.1.1-.1.3-.2a6.463,6.463,0,0,1,2.1-.6,9.637,9.637,0,0,1,2.4,0l3,.3a6.56,6.56,0,0,0,2-.1l3.7-.8a7.569,7.569,0,0,1,1.5-.1,2.836,2.836,0,0,1,1.3.4,6.713,6.713,0,0,0,1.5.6,11.076,11.076,0,0,0,1.9-.2,6.7,6.7,0,0,1,2,0c.6.1,1.3.1,2,.2a13.421,13.421,0,0,0,4-.1,15.037,15.037,0,0,1,3,0,15.037,15.037,0,0,0,3,0,9.662,9.662,0,0,1,2.4-.1,8.524,8.524,0,0,1,2.3.3,1.628,1.628,0,0,1,.6.3c.1.1.2.3.1.4A.31.31,0,0,1,148.8,9.5Zm1.1,3.7c-.1,0-.3-.2-.4-.3a3.548,3.548,0,0,0,.7-.1C150.9,13,150.8,13.2,149.9,13.2Zm4.5,3.3-.5-.3h.8Zm-2.1-6.8a.781.781,0,0,1-.4-.4c.3-.1.5-.1.8-.2h.8a1.445,1.445,0,0,1,.7.2c.2.1.5.3.5.3C154.5,10,152.9,9.9,152.3,9.7Zm5.8-.6c.3,0,.6-.2.8-.1.2,0,.4.3.4.3C158.7,9.6,158.2,9.5,158.1,9.1Zm5.2,1c-.8-.1-1.1-.3-.7-.6a2.92,2.92,0,0,1,.9-.2h.5a.9.9,0,0,1,.5.1c.1,0,.3.1.3.2.1.1.1.2.2.2,0,.1-.4.2-.7.2A1.211,1.211,0,0,1,163.3,10.1Zm5.4,3.7a25.122,25.122,0,0,1-2.7.4h-.9a4.875,4.875,0,0,1-.7-.3c-.4-.2-.2-.5.6-.6a10.952,10.952,0,0,1,2.7-.4,2.768,2.768,0,0,1,.9.1,4.875,4.875,0,0,1,.7.3C169.7,13.4,169.4,13.7,168.7,13.8Zm2.1-3.9.3-.3.6.3Zm6.5,0h-.9a1.884,1.884,0,0,1-.8-.2,1.756,1.756,0,0,1-.5-.4,2.92,2.92,0,0,1,.9-.2h.9a1.884,1.884,0,0,1,.8.2C178.4,9.7,178.3,9.8,177.3,9.9Zm3.3,7.7c.2,0,.5-.1.7-.1s.4.3.4.3C181.1,18,180.7,18,180.6,17.6ZM181,14l.2-.3.6.3Zm24.4,5.1a2.768,2.768,0,0,1-.9-.1,4.875,4.875,0,0,1-.7-.3v-.2a.349.349,0,0,1,.2-.1,2.769,2.769,0,0,1,.9-.1,2.92,2.92,0,0,1,.9.2C206.7,18.8,206.5,19.1,205.4,19.1Zm35.8.3.6-.2.1.4Zm6.8,0c-.6-.2-.5-.4.4-.4l.3.3A2.252,2.252,0,0,1,248,19.4Zm8.4.1-.3-.3c.6-.3,1-.2,1,.2C257.1,19.4,256.5,19.6,256.4,19.5Zm5.7-.1a2.92,2.92,0,0,1-.9-.2,1,1,0,0,1-.5-.4c.3-.1.6-.1.9-.2a3.751,3.751,0,0,1,1,.1,1.628,1.628,0,0,1,.6.3C263.4,19.3,262.9,19.4,262.1,19.4Zm1.8-2.7a3.4,3.4,0,0,1-1-.1,1.275,1.275,0,0,1-.6-.4,1.854,1.854,0,0,1,.7-.2,2.769,2.769,0,0,1,.9.1,1.884,1.884,0,0,1,.8.2C265.2,16.6,264.8,16.7,263.9,16.7Zm218.4,6.8c-.3-.1-.6-.1-.8-.3-.3-.1-.3-.3-.3-.3a2.92,2.92,0,0,1,.9-.2,2.388,2.388,0,0,1,.9.2c.2.1.5.1.5.3C483.7,23.5,483.2,23.6,482.3,23.5Zm7.4-.2c-.6-.2-.5-.4.3-.4l.3.3C490.2,23.2,489.7,23.3,489.7,23.3Zm26.8,1.4c-.7-.3-.5-.5.4-.5l.4.3C517,24.6,516.6,24.8,516.5,24.7Zm22.3.9a2.769,2.769,0,0,1-.9-.1,1.628,1.628,0,0,1-.6-.3v-.3a2.2,2.2,0,0,1,.8-.1,2.769,2.769,0,0,1,.9.1,4.877,4.877,0,0,1,.7.3C539.9,25.4,539.6,25.6,538.8,25.6Zm60,3.5a8.446,8.446,0,0,1-1.7.5,12.252,12.252,0,0,1-1.9.2c-1.8-.1-3.3-.4-4.1-.5-2.6-.5-4.7-.5-6.5-1-.9-.2-1.2-.8-2.4-.7-.7,0-1.3.2-2,.2-.3,0-.6-.1-.9-.1a1.445,1.445,0,0,1-.7-.2.536.536,0,0,1-.3-.4,1.167,1.167,0,0,1,.6-.6,4.961,4.961,0,0,1,1.3-.3,3.4,3.4,0,0,0,1,.1,13.552,13.552,0,0,0,2,.2,10.538,10.538,0,0,1,3.4.9,6.463,6.463,0,0,0,2.1.6,9.662,9.662,0,0,0,2.4.1,19.839,19.839,0,0,1,7.7.3c.3.1.6.2.6.3S599.1,29,598.8,29.1Zm58.5,4c.2,0,.5-.2.7-.1.2,0,.3.3.3.3C657.7,33.5,657.4,33.4,657.3,33.1Zm32.4-2.3c0,.1,0,.2-.1.2l-.2.2c-.1.1-.2.1-.4.1a1.087,1.087,0,0,0-.5.1,20.515,20.515,0,0,1-5.6-.5c-.1,0-.2-.1-.3-.2s-.2-.1-.2-.2a.446.446,0,0,1,0-.5c.1-.1.2-.3.4-.4a1.854,1.854,0,0,1,.7-.2,2.719,2.719,0,0,1,.9,0c1,.1,2,.1,2.7.2.8.2,1.4.3,1.9.4a1.628,1.628,0,0,1,.6.3C689.7,30.5,689.8,30.7,689.7,30.8Zm17,5.8c-.7-.3-.5-.5.4-.5l.4.3Zm5-1.3-.4-.4c.7-.3,1.2-.3,1.2.2C712.5,35.2,711.9,35.4,711.7,35.3Zm9.6-1.6a8.469,8.469,0,0,1-1.7-.4c-.3-.1-.5-.2-.5-.3a.3.3,0,0,1,0-.4c.1-.1.2-.3.4-.4a1.37,1.37,0,0,1,1.5.1c.4.2.9.4,1.4.6a1.884,1.884,0,0,1,.8.2,1,1,0,0,1,.5.4C723.7,33.8,722.4,33.9,721.3,33.7Zm11.6,4.8a1.884,1.884,0,0,1,.8-.2,2.769,2.769,0,0,1,.9.1c.6.2.9.4.6.6a1.884,1.884,0,0,1-.8.2,2.769,2.769,0,0,1-.9-.1C732.9,38.9,732.6,38.7,732.9,38.5Zm18.5-5.7c-1.6-.2-3.3-.4-4.9-.5a13.4,13.4,0,0,0-2,.1c-1.5.1-1.9-.1-1.7-.7,0-.2.2-.3.4-.4a2,2,0,0,1,.9-.2h1a13.552,13.552,0,0,1,2,.2,13.452,13.452,0,0,0,4.9,0,1.884,1.884,0,0,1,.8.2,1.934,1.934,0,0,1,.9.5.908.908,0,0,1,.3.7A6.569,6.569,0,0,1,751.4,32.8ZM794.7,36c0,.1,0,.4-.2.4a4.671,4.671,0,0,1-1.7.3,7.456,7.456,0,0,1-2.6-.4,3.956,3.956,0,0,1-1.8-1.1.4.4,0,0,1-.2-.4c.1-.3.7-.3,1.5-.3.6.1,1.2.1,1.9.2l1.9.2C794.4,35.2,794.8,35.5,794.7,36Z" opacity="0"/><path d="M81.5,4.1c-.4-.1-.2,0,0,0Z"/></g><path d="M829.2,46.239A7.242,7.242,0,0,1,827.4,46h3.886c-.423.09-.9.146-1.386.2A6.354,6.354,0,0,1,829.2,46.239ZM914,46H831.286a3.813,3.813,0,0,0,.915-.3l-.7-.5.7-.1c-1.156-.257-1.8-.593-1.976-1.027a.92.92,0,0,1,.176-.873,11.1,11.1,0,0,0,1.1-1.8,1.474,1.474,0,0,1,.7-.6,2.4,2.4,0,0,1,1.2-.3,4.47,4.47,0,0,1,1.3.2,1.065,1.065,0,0,1,.7.6c.016.048.029.1.042.147a.728.728,0,0,0,.658.653,6.053,6.053,0,0,0,1.9,0,6.721,6.721,0,0,1,2,0c.308.051.662.106.945.149.335.051.661.1.955.15a1.243,1.243,0,0,1,.8.5c1.107,0,2.336.1,3.4.2a1.524,1.524,0,0,1,.395-.106,2.854,2.854,0,0,0,.405-.094,11.742,11.742,0,0,1,1.766.166l.115.017.119.017a3.507,3.507,0,0,1,1,.2,16.424,16.424,0,0,1,1.173-1.394l.009-.01c.206-.228.419-.464.618-.7l.6-.7-4.1.2c-.02-.06-.04-.116-.059-.17l0-.007A1.734,1.734,0,0,1,848,39.9c.3-1.775,1.54-3.457,3.7-5a19.506,19.506,0,0,1-2.4-.2l-2.5-.5,1.8-.8a1.373,1.373,0,0,1-.6-1v-.9h2.1a2.445,2.445,0,0,0,1.5-.5l0,0a6.148,6.148,0,0,1,1.2-.5l-.183-.047-.015,0a3.372,3.372,0,0,0-.9-.149l-2.8-.4,1.8-.9a4.026,4.026,0,0,1,.449-.249,4.074,4.074,0,0,0,.451-.25,10.664,10.664,0,0,1,1.091-.6l.009,0a4.847,4.847,0,0,1-2.1-1.5,2.215,2.215,0,0,1-.6-1.8,5.7,5.7,0,0,1,.3-1.8c.038-.264.089-.512.139-.752A5.705,5.705,0,0,0,850.6,20.9a2.766,2.766,0,0,0-1.2-2.5l-.5-.4.7-.4a7.066,7.066,0,0,1,3.3-.7,11.734,11.734,0,0,1,4.8,1.1,5.075,5.075,0,0,0,1.3.5l3,.3-1.8,1A1.788,1.788,0,0,0,859,21c0,.492.875.9,2.6,1.2l1.1.2.7.4v.6a2.9,2.9,0,0,1-1.4,2,2.714,2.714,0,0,1-.3.25,2.7,2.7,0,0,0-.3.251,2.764,2.764,0,0,1,1.3.3,1.459,1.459,0,0,1,.9.6,1.964,1.964,0,0,0,.8.1c.211-2.2,7.861-4.155,10.2-4.7l2.6-.6.8,1.1.1.2a10.912,10.912,0,0,1,2.6-.3,1.377,1.377,0,0,1-.6-1.1,1.744,1.744,0,0,1,.139-.625c.02-.055.04-.113.061-.175l.4-.6,1.6-.1c.339-.026.69-.039,1.043-.039A18.266,18.266,0,0,1,889.5,21.1a5.765,5.765,0,0,0,1.4.5,9.2,9.2,0,0,0,1.7.1h1.5l-.4-1.1,1.7,1.1h.5l-.2.2,3.6,2.4a13.415,13.415,0,0,0,3.2,1.4h1.2l.5-.6,1.5.6c.322.013.653.019.983.019A36.534,36.534,0,0,0,913,25.1a1.858,1.858,0,0,1-.8,1.4,6.814,6.814,0,0,1-2.3.9c1.387.595,2.7,1.2,3.964,1.783l.036.017V0h.1V46Zm-86.6,0H0V30.2c4.068.777,8.761,1.7,12.988,2.875A40.378,40.378,0,0,1,23.5,37.3a1.255,1.255,0,0,0,.128-.156A.478.478,0,0,1,24.1,36.9c.392,0,1.2.494,1.2.8v.9l.4.3c.313-.026.631-.039.945-.039A13.45,13.45,0,0,1,29.1,39.1a3.51,3.51,0,0,0-.3-1.4,1.061,1.061,0,0,1,.5-1.2.55.55,0,0,1,.245-.11A1.373,1.373,0,0,0,29.8,36.3a4.314,4.314,0,0,1,1,2.2v.4l3.1-1.1.8,1.8a9.428,9.428,0,0,0,1.5,2c3.3-.05,6.613-.075,9.85-.075s6.559.025,9.85.075l.012-.006c.391-.2.794-.4,1.289-.593.629-.172,1.229-.378,1.808-.576l.02-.007c.437-.15.85-.291,1.271-.418a.213.213,0,0,0,.2-.2v-.4s.026.025.038.025a.006.006,0,0,0,.005,0c0-.007,0-.035-.043-.122l-.036-.076c-.089-.189-.2-.424-.463-.424a2.908,2.908,0,0,0-.449-.1,2.942,2.942,0,0,1-.451-.1l-1.7-.2a6.283,6.283,0,0,1-3,1c-1.334.2-2.688.313-4,.422-.622.052-1.326.11-2,.178h-.008a25.526,25.526,0,0,1-2.892-.4c-.7-.1-.7-.5-.7-.8,0-.1,0-.2.1-.2a.529.529,0,0,1,.15-.1.521.521,0,0,0,.15-.1.607.607,0,0,1,.4-.1h3.5c1.3,0,2-.172,2.2-.541.128-.232.062-.546-.2-.96a.75.75,0,0,1-.2-.4,2.188,2.188,0,0,1,.5-.4,1.89,1.89,0,0,1,.8-.2,5.847,5.847,0,0,1,1.9-.3c1.2-.05,2.37-.177,3.5-.3s2.3-.25,3.5-.3a19.774,19.774,0,0,0,2.6-.7c.524-.2.753-.539.749-.793A.442.442,0,0,0,64.1,33a7.549,7.549,0,0,1-2.7-1.3,6.493,6.493,0,0,0-.8-.9l1.4-.7a1.7,1.7,0,0,0,1-.8,4.013,4.013,0,0,1,.5-.9,1.235,1.235,0,0,0,.4-.9,1.365,1.365,0,0,0-.5-.9.737.737,0,0,1-.11-.719A.907.907,0,0,1,64,25.4a2.544,2.544,0,0,1,.42-.037,3.173,3.173,0,0,1,1.28.338,2.935,2.935,0,0,0,.952.228c.424,0,.685-.245,1.047-.729a4.276,4.276,0,0,1,2.2-1.5c.449-.128.658-.248.7-.4.029-.111-.034-.238-.2-.4a1.951,1.951,0,0,1-.6-1.3.725.725,0,0,0-.6-.6,2.4,2.4,0,0,0-1.2-.3,3.064,3.064,0,0,1-.76-.138L67,20.5c-1.012-.179-1.534-.367-1.551-.56-.01-.109.142-.224.451-.34.4-.151.836-.279,1.254-.4l.012,0c.413-.122.839-.247,1.234-.4.465-.186.988-.395,1.4-.6.649-1.484,2.836-2.292,6.5-2.4a2.9,2.9,0,0,1,.45-.1,2.948,2.948,0,0,0,.45-.1,1.009,1.009,0,0,1-.213-.157A1.054,1.054,0,0,0,76.6,15.2c-.3-.067-.642-.146-.971-.223l-.007,0c-.654-.153-1.325-.31-1.723-.376-.483-.1-1-.493-1-.7a16.684,16.684,0,0,1,1.294-2.689l.006-.01a1.478,1.478,0,0,0-.3-1.4.393.393,0,0,1-.012-.376c.093-.137.347-.2.8-.2A10.432,10.432,0,0,1,75.8,9.3l2,.2a10.072,10.072,0,0,0,1.521.109A16.225,16.225,0,0,0,81.8,9.4a11.978,11.978,0,0,1,2.369-.191A9.312,9.312,0,0,0,85.8,9.1l2.7-.6A2.085,2.085,0,0,1,90.1,8a18.277,18.277,0,0,0,4.8-.8,4.975,4.975,0,0,1,.974-.125A4.091,4.091,0,0,1,97.5,7.5a7.475,7.475,0,0,0,1.6.5,10.731,10.731,0,0,1,2.7.6,15.749,15.749,0,0,0,2.245.9,15.71,15.71,0,0,1,2.255.9,6.489,6.489,0,0,0,2.5.7c.979.1,1.991.2,3,.4a1.268,1.268,0,0,1,.3.05,1.263,1.263,0,0,0,.3.05c.2.1.3.2.3.3a.372.372,0,0,1-.1.3.76.76,0,0,1-.5.2c-.453.194-.643.325-.636.44.006.093.148.178.435.26a4.206,4.206,0,0,0,1.357.239,3.847,3.847,0,0,0,.543-.039l3-.3a6.819,6.819,0,0,0,2-.2,3.736,3.736,0,0,1-.2-.9c0-.206.1-.3.2-.3a2.6,2.6,0,0,1,2,0l1.5.6a2.75,2.75,0,0,0,1.6.5c1,.1,2.015.227,3,.35l.005,0h0c.982.123,2,.25,3,.35a13.444,13.444,0,0,0,2-.1,13.415,13.415,0,0,1,4,0c.8.1,1.623.228,2.414.352h.007c.78.122,1.586.248,2.379.347a.679.679,0,0,1,.6.4,1.093,1.093,0,0,1,0,.8,1.888,1.888,0,0,1-.8.7,12.02,12.02,0,0,1-3,.9,9.6,9.6,0,0,1-1.713.15A10.9,10.9,0,0,1,134,16.8a6.145,6.145,0,0,0-.863-.066A3.605,3.605,0,0,0,132,16.9a16.283,16.283,0,0,1-2.478.209A10.1,10.1,0,0,1,128,17a6.722,6.722,0,0,0-2,0c-1.431.1-2.72.2-4,.4a2.239,2.239,0,0,0-1.5.8.2.2,0,0,0,0,.2.921.921,0,0,0,.6.4,29.18,29.18,0,0,0,6.7,1l3-.3a1.391,1.391,0,0,1,.9,0,2.932,2.932,0,0,1,.9.2.925.925,0,0,1,.6.4.762.762,0,0,1,.2.5,2.942,2.942,0,0,0,1.5,1.7,1.572,1.572,0,0,0,.818.264,1.4,1.4,0,0,0,.782-.264.535.535,0,0,0,.3-.4,2.937,2.937,0,0,0-.2-.9c-.023-.048-.051-.093-.078-.137-.066-.106-.126-.2-.1-.281a.142.142,0,0,1,.081-.085,2.928,2.928,0,0,1,.9-.2h1l1,.1a25.532,25.532,0,0,1,2.9.4c.889.3,1.7.6,2.4.9a29.522,29.522,0,0,1,3.635-.239c.463,0,.922.013,1.365.039.489.032.8.052,1.06.052a3.344,3.344,0,0,0,1.64-.453,3.8,3.8,0,0,1,1.6-.5,6.053,6.053,0,0,1,1.9,0c2.278.3,4.518.493,7,.7.261.026.53.039.8.039a9.675,9.675,0,0,0,2.1-.24c.3-.05.6-.126.9-.2h.005c.294-.074.6-.15.9-.2a10.367,10.367,0,0,1,2.18-.239c.282,0,.558.013.82.039l.183.026.048.007a11.735,11.735,0,0,0,1.769.166,11.865,11.865,0,0,0,1.8.139,9.836,9.836,0,0,0,2.2-.239l.1-.022c.852-.189,1.732-.385,2.7-.579a14.537,14.537,0,0,1,1.777-.141,5.815,5.815,0,0,1,.724.041,8.626,8.626,0,0,1,2.3.6c.1.049.225.1.346.149s.252.1.353.151a7.538,7.538,0,0,0,2.4.8l5,.5a3.785,3.785,0,0,0,1.5,0,3.347,3.347,0,0,0,1.2-.4,4.664,4.664,0,0,1,2.4-.7,16.644,16.644,0,0,0,1.942.109A24.615,24.615,0,0,0,202.4,20.9a6.722,6.722,0,0,1,2,0c1.147.15,2.312.277,3.44.4l.028,0c1.067.116,2.276.247,3.433.4a12.424,12.424,0,0,0,1.243.066A8.873,8.873,0,0,0,214.3,21.6c.695-.069,1.414-.141,2.121-.141a8.723,8.723,0,0,1,.879.041l1,.1.032,0c2.252.293,4.58.6,6.968.7,1.983-.1,4-.3,5.951-.5h.008l.041,0c.5-.05,1-.075,1.5-.075s1,.025,1.5.075,1,.075,1.5.075,1-.025,1.5-.075a20.47,20.47,0,0,1,2.852-.252h.012c.713-.03,1.45-.061,2.135-.147.5-.05,1-.075,1.5-.075s1,.025,1.5.075c1.1.1,2.216.216,3.3.332h.008c1.2.129,2.439.262,3.692.367a12.733,12.733,0,0,0,2-.1,15.556,15.556,0,0,1,2.348-.166c.531,0,1.087.022,1.653.066a7.339,7.339,0,0,0,1.037.075,5.865,5.865,0,0,0,.962-.075,16.311,16.311,0,0,1,2.478-.209,10.1,10.1,0,0,1,1.523.109h2a7.348,7.348,0,0,0,1.076-.106,6.48,6.48,0,0,1,.923-.094,4.656,4.656,0,0,1,.908.277,4.417,4.417,0,0,0,.692.224h.9a16.192,16.192,0,0,1,2.478-.21A10.048,10.048,0,0,1,274.8,22a12.333,12.333,0,0,0,1.244.066A8.832,8.832,0,0,0,277.8,21.9c.5-.05,1-.075,1.5-.075s1,.025,1.5.075a17.943,17.943,0,0,0,3.067.255A23.033,23.033,0,0,0,287.8,21.8c.926,0,1.863-.075,2.769-.148s1.846-.148,2.77-.148a13.348,13.348,0,0,1,1.662.1,4.343,4.343,0,0,0,.612.041A8.47,8.47,0,0,0,297,21.5a13.416,13.416,0,0,1,4,0l.118.012L307,22.1a8.742,8.742,0,0,0,.878.041A21.252,21.252,0,0,0,310,22l2-.1h1c.323.025.657.038.991.038A13.6,13.6,0,0,0,317,21.6c.267-.044.53-.108.809-.175l.009,0c.342-.082.7-.167,1.082-.223a8.847,8.847,0,0,1,1.759-.166,12.431,12.431,0,0,1,1.242.066c.995.1,1.981.226,2.935.348l.028,0c.954.122,1.941.249,2.937.348a12.438,12.438,0,0,0,1.243.066A8.874,8.874,0,0,0,330.8,21.7a15.581,15.581,0,0,1,2.348-.166c.528,0,1.084.022,1.653.066a4.35,4.35,0,0,0,.613.041A8.47,8.47,0,0,0,336.8,21.5a19.471,19.471,0,0,1,2.938-.239c.368,0,.725.013,1.063.039.567.044,1.123.066,1.652.066A15.558,15.558,0,0,0,344.8,21.2a7.55,7.55,0,0,0,1.6.5,6.071,6.071,0,0,0,1.9,0c.982-.1,2-.2,3-.2a3.754,3.754,0,0,0,.5-.05,3.765,3.765,0,0,1,.5-.05,15.575,15.575,0,0,1,2.348-.166c.53,0,1.086.022,1.653.066a20.294,20.294,0,0,0,2.5.15,20.278,20.278,0,0,0,2.5-.15,6.709,6.709,0,0,1,2,0c.86.1,1.732.18,2.5.25l.02,0c.8.073,1.637.149,2.479.248a7.379,7.379,0,0,0,1.038.075,5.887,5.887,0,0,0,.962-.075,24.616,24.616,0,0,1,3.058-.209,16.744,16.744,0,0,1,1.943.109c.983.1,2,.2,3,.2.364,0,.726-.027,1.077-.053h.015c.321-.024.624-.046.908-.046a8.367,8.367,0,0,1,1.7.5,2.788,2.788,0,0,0,.9.1,14.024,14.024,0,0,1,5,0,15.57,15.57,0,0,0,2.347.166c.529,0,1.085-.022,1.652-.066a26.268,26.268,0,0,1,2.652-.221c.422-.021.9-.044,1.349-.079a15.481,15.481,0,0,1,2.345-.166c.531,0,1.088.022,1.655.066a35.537,35.537,0,0,0,5.378.4c.913,0,1.829-.034,2.722-.1a6.723,6.723,0,0,1,2,0l5,.5a13.565,13.565,0,0,1,4.3,1.2,4.011,4.011,0,0,0,1.3.4,2.54,2.54,0,0,0,.5.045c.166,0,.334-.011.5-.022s.336-.023.5-.023c.6-.1,1.241-.228,1.858-.351S425.2,23.9,425.8,23.8a2.759,2.759,0,0,1,.9.1l.3.1.438.1a6.271,6.271,0,0,0,1.426.25A4.924,4.924,0,0,0,430.2,24.1a13.757,13.757,0,0,1,3.629-.469,15.357,15.357,0,0,1,2.27.169,13.353,13.353,0,0,0,4,0,13.416,13.416,0,0,1,4,0c1.6.16,3.213.35,4.774.534,1.357.16,2.76.325,4.126.467a13.411,13.411,0,0,0,4,0,6.654,6.654,0,0,1,2,0h.006c2.947.294,5.994.6,8.894,1a12.412,12.412,0,0,0,1.243.066A8.872,8.872,0,0,0,470.9,25.7a6.01,6.01,0,0,1,1.9,0,4.824,4.824,0,0,1,1.7.5,6.473,6.473,0,0,0,2.5.7c.986.1,2,.2,3,.4a3.416,3.416,0,0,0,1,.1,2.384,2.384,0,0,0,.9-.2.086.086,0,0,0,.076-.03c.034-.049,0-.149-.037-.237a.476.476,0,0,1-.039-.132.647.647,0,0,1,.111-.545,1.165,1.165,0,0,1,.9-.274c.119,0,.249.006.386.019h2.8c.5.05,1,.075,1.5.075s1-.025,1.5-.075c.824-.1,1.656-.178,2.537-.257l.021,0c.8-.071,1.624-.145,2.442-.242a13.416,13.416,0,0,1,4,0,20.85,20.85,0,0,0,5,0,6.7,6.7,0,0,1,2,0,10.033,10.033,0,0,0,1.522.109A16.285,16.285,0,0,0,509.1,25.4c.5-.05,1-.075,1.5-.075s1,.025,1.5.075c1.239.162,2.414.291,3.658.427l.024,0c1.039.114,2.113.232,3.219.37a20.919,20.919,0,0,0,5,0,6.7,6.7,0,0,1,2,0l6.9.8a2.926,2.926,0,0,1,.9.2.923.923,0,0,1,.6.4.035.035,0,0,1,.013.032c-.006.04-.09.081-.186.13A.743.743,0,0,0,533.9,28c-.453.288-.645.5-.605.674.055.239.581.4,1.7.526a7.545,7.545,0,0,0,3,0c1.472-.392,2.994-.8,4.5-1.1.309-.052.652-.1.954-.151l.027,0c.309-.047.628-.1.918-.145a3.068,3.068,0,0,1,1-.1c2.006.2,4.011.429,5.95.65l.028,0c1.933.22,3.932.448,5.922.647a6.714,6.714,0,0,0,2,0,5.733,5.733,0,0,1,1.406-.166,7.989,7.989,0,0,1,.994.066,4.713,4.713,0,0,1,2.1.7,3.8,3.8,0,0,0,1.7.5,4.757,4.757,0,0,0,.784.066A3.521,3.521,0,0,0,567.4,30a3.306,3.306,0,0,1,1.4,0,3.308,3.308,0,0,1,1.2.4,8.389,8.389,0,0,0,1.7.5,5.856,5.856,0,0,0,1.9-.2c.883-.2,1.8-.4,2.8-.6a12.834,12.834,0,0,1,2-.1,16.64,16.64,0,0,0,1.942.109A24.613,24.613,0,0,0,583.4,29.9a3.427,3.427,0,0,1,1-.1c1.24.138,2.526.266,3.77.39h.007c2.375.237,4.831.482,7.122.809a7.009,7.009,0,0,1,3.2,1.1,3.328,3.328,0,0,0,1.2.4,6.6,6.6,0,0,0,1.4.1,21,21,0,0,1,3.424-.4h.007A22.326,22.326,0,0,0,608,31.8a9.8,9.8,0,0,0,2.4-.2,3.926,3.926,0,0,0,1.7-.9,7.566,7.566,0,0,1,1.6-.5,6.785,6.785,0,0,1,2.152-.338c.249,0,.5.013.748.037l.51.06c1.523.18,2.961.35,4.49.44a3.786,3.786,0,0,1,1.6.4,1.545,1.545,0,0,1,.8.8,8.7,8.7,0,0,0,2.1.239,10.421,10.421,0,0,0,1.7-.139,15.815,15.815,0,0,1,2.434-.209,10.95,10.95,0,0,1,1.566.109,6.722,6.722,0,0,0,2,0,8.454,8.454,0,0,1,1.388-.141,4.382,4.382,0,0,1,.613.041,3.506,3.506,0,0,1,1.023.378c.155.078.312.156.476.222a4.777,4.777,0,0,0,1.8.4,25.281,25.281,0,0,1,2.9.4,1.894,1.894,0,0,1,.8.2c.038.019.08.038.124.058a.947.947,0,0,1,.477.342l-.017.01a5.033,5.033,0,0,1-.683.291,2.785,2.785,0,0,1-.9.1,5.244,5.244,0,0,0-1.8.3,3.1,3.1,0,0,0,.6.4l.144.05a1.981,1.981,0,0,0,.756.15l1,.1a3.782,3.782,0,0,1,1.6.4.938.938,0,0,1,.6.8,12.1,12.1,0,0,0,2.363.225A13.273,13.273,0,0,0,649.5,36.1a6.7,6.7,0,0,1,2,0,13.425,13.425,0,0,0,4,0,3.63,3.63,0,0,1,.763-.1c.423,0,.637.134.637.4,0,.209-.11.305-.3.4a.929.929,0,0,1-.6.4,2.785,2.785,0,0,1-.9.1c-.5,0-1.006-.051-1.5-.1s-1-.1-1.5-.1a.9.9,0,0,0-.5.1.758.758,0,0,1-.4.1c-.085.056-.123.114-.113.172.024.139.331.283.912.428a29.045,29.045,0,0,0,2.9.4c.54.054,1.08.137,1.6.218h.006c.429.066.872.135,1.291.181a7.47,7.47,0,0,1,1.6.5l.082.024a5.994,5.994,0,0,0,1.436.315,1.421,1.421,0,0,0,.882-.338,3.136,3.136,0,0,1,1-.5,5.836,5.836,0,0,1,1.4-.2,5.817,5.817,0,0,0,1.9-.3c-.022-.022-.045-.05-.07-.08a.881.881,0,0,0-.43-.32,1.9,1.9,0,0,0-.8-.2l-1.965-.3L660.9,37c-.081-.027-.152-.046-.221-.064a.931.931,0,0,1-.478-.235.917.917,0,0,1-.307-.288,1.173,1.173,0,0,0-.094-.113c-.082-.164-.03-.259.048-.4.017-.031.035-.063.052-.1a2.185,2.185,0,0,1,.5-.4,12.443,12.443,0,0,0,2-1,2.58,2.58,0,0,1,1.4-.6,6.018,6.018,0,0,1,1.9,0,13.406,13.406,0,0,0,4,0,12.729,12.729,0,0,1,2-.1l.046,0c3.917.392,7.967.8,11.855,1.4.534.067.74.26.755.406a.192.192,0,0,1-.155.195,2.937,2.937,0,0,1-.9.2c-.415-.038-.828-.081-1.227-.124a33.562,33.562,0,0,0-3.546-.247,13.431,13.431,0,0,0-2.227.171h-.9a4.853,4.853,0,0,1-.687-.294L674.7,35.4a.521.521,0,0,0-.15-.1.53.53,0,0,1-.15-.1.754.754,0,0,0-.5-.1h-.5a.658.658,0,0,0-.269.063A.361.361,0,0,1,673,35.2a6.659,6.659,0,0,1-1.626.178c-.553,0-1.115-.046-1.66-.09s-1.083-.088-1.615-.088a2.387,2.387,0,0,0-.9.2,1.374,1.374,0,0,0,.4.3,1.888,1.888,0,0,0,.8.2l6.9.9c.5.05,1,.075,1.5.075s1-.025,1.5-.075,1-.075,1.5-.075,1,.025,1.5.075l3,.3a3.794,3.794,0,0,0,1.5,0,2.82,2.82,0,0,0,1.1-.5,8.038,8.038,0,0,1,3.1-1.1,12.268,12.268,0,0,1,2-.2l1.838.184.967.1L698,35.9h2c.418-.025.733-.036.991-.036a1.939,1.939,0,0,1,1.508.436,7.169,7.169,0,0,0,1.7,1.1,8.21,8.21,0,0,0,3.6.7,11.765,11.765,0,0,0,1.768-.166l.233-.034c.708-.109,1.39-.248,2.051-.383l.014,0c.534-.109,1.086-.222,1.635-.314,1,0,2.017-.1,3-.2a16.289,16.289,0,0,1,2.478-.209,10.092,10.092,0,0,1,1.522.109,3.348,3.348,0,0,0,.548.041A8.424,8.424,0,0,0,722.4,36.8a3.715,3.715,0,0,0,1.4-.6,6.854,6.854,0,0,1,.789-.3l.011,0a1.443,1.443,0,0,1,.463-.075,2.222,2.222,0,0,1,.537.075c1.1,0,1.5.2,1.8.9a5.04,5.04,0,0,0,.7,1.3.283.283,0,0,1-.015.237c-.1.175-.4.318-.985.464a2.934,2.934,0,0,1-.9.2,10.326,10.326,0,0,1-2.181.24c-.283,0-.559-.013-.819-.039-1-.1-2.008-.226-2.985-.349s-2.006-.251-3.015-.352a12.825,12.825,0,0,0-2-.1c-.281,0-.9.1-.9.2a.4.4,0,0,0,.2.4,1.453,1.453,0,0,0,.7.2c1.523.21,3.106.4,4.636.576h.006c1.394.164,2.835.333,4.257.523.565.044,1.121.066,1.652.066A15.566,15.566,0,0,0,728.1,40.2a10.456,10.456,0,0,1,2.5,0,8.663,8.663,0,0,1,2.3.6c.168.068.343.149.5.222a4.616,4.616,0,0,0,1,.379,11.745,11.745,0,0,0,1.766-.166l.234-.034a7.313,7.313,0,0,1,1.038-.05,5.948,5.948,0,0,0,.962-.05,10.414,10.414,0,0,0,1.2-.3,2.2,2.2,0,0,0,.7-.6c.242-.364.272-.641.1-.9a2.182,2.182,0,0,0-1.2-.7,4.9,4.9,0,0,1-.695-.3l-.005,0a.927.927,0,0,1-.305-.287,1.193,1.193,0,0,0-.094-.114,2.988,2.988,0,0,1,.5-.106c.155-.024.314-.048.5-.094.248-.013.5-.019.749-.019a12.223,12.223,0,0,1,4.851.919c.28.1.426.236.432.389.011.289-.47.663-1.431,1.111-.305.153-.45.292-.43.414.034.2.5.362,1.43.486a13.411,13.411,0,0,0,4,0l1.8-.4a3.064,3.064,0,0,1,1-.1c.1,0,.213-.011.322-.022h.006c.107-.011.218-.022.316-.022a.581.581,0,0,1,.256.044c.1,0,.2.1.3.2a.314.314,0,0,1,.1.2s0,.2-.1.2a.526.526,0,0,1-.149.1.526.526,0,0,0-.151.1c-.3.152-.7.336-1.045.5-.37.173-.753.351-1.055.5a.8.8,0,0,0-.482.788.511.511,0,0,0,.482.411l.01,0a11.063,11.063,0,0,0,1.89.2,2.793,2.793,0,0,0,.426-.045,3.525,3.525,0,0,1,.574-.056,12.268,12.268,0,0,1,2-.2,5.8,5.8,0,0,0,2.3-.4c.574-.288,1.1-.588,1.2-1.1a2.329,2.329,0,0,1,2.04-.774,8.669,8.669,0,0,1,1.06.073l3,.3c.261.026.531.039.8.039a9.717,9.717,0,0,0,2.1-.239c1.05-.221,1.523-.408,1.535-.606.01-.169-.31-.353-1.035-.594-.162-.065-.338-.131-.509-.2l-.024-.009c-.345-.129-.7-.263-.967-.4a5.663,5.663,0,0,0-2.4-.8l-.785-.094L736.7,35.4l-4.9-.6c-.973-.109-1.484-.278-1.517-.5-.028-.19.28-.424.917-.7a6.255,6.255,0,0,0,1.9-1.6h0l0,0a2.111,2.111,0,0,0,.595-.4,2.772,2.772,0,0,1,1.3-.3,2.493,2.493,0,0,1,1.3.3c.3.1.459.17.463.261s-.187.228-.663.439c-.4.2-.6.4-.567.589.034.227.381.363.667.411s.619.1.953.15l.025,0c.31.048.63.1.921.145L750,35a13.429,13.429,0,0,0,2.463.225A14.679,14.679,0,0,0,755,35a12.832,12.832,0,0,1,2-.1l.032,0c.586-.053.879-.08,1.009-.239.107-.13.1-.348.058-.758a.354.354,0,0,1,.025-.317c.106-.136.387-.184,1.074-.184a42.245,42.245,0,0,1,5,.5,6.59,6.59,0,0,1,2.6.6l-.9.7c-.2.1-.5.3-.5.3a2.749,2.749,0,0,0,1.6.5c3.013.389,6.017.773,9.35,1.2l.434.056c2.931.375,5.962.763,8.916,1.145,2.126.277,4.338.469,6.477.654h.006l.517.045c1,0,2.015-.1,3-.2l2.4.9c3.849.448,7.541.965,11.451,1.512l1.349.189a6.723,6.723,0,0,0,2,0,5.077,5.077,0,0,1,1.376-.166,8.328,8.328,0,0,1,1.024.066,6.481,6.481,0,0,1,2.1.6,5,5,0,0,0,2.8,0,6.129,6.129,0,0,0,.7-.349,6.071,6.071,0,0,1,.7-.351,3.977,3.977,0,0,1,.963-.141A2.225,2.225,0,0,1,823,41.2a2.77,2.77,0,0,1,1.3.3,13.663,13.663,0,0,1,2.6,1.9c.183.183.248.315.206.416-.083.2-.593.284-1.707.284a10.057,10.057,0,0,0-3.6.7c-.2.1-.4.2-.4.3a.945.945,0,0,0,.473.341c.045.021.088.04.127.06a3.066,3.066,0,0,0,1,.1,26.154,26.154,0,0,0,2.9-.2l1.191.477.3.121h0Zm-93-6.8a2.759,2.759,0,0,1-.9-.1c-.465-.155-.7-.293-.717-.423-.008-.06.031-.119.117-.176a1.894,1.894,0,0,1,.8-.2,2.782,2.782,0,0,1,.9.1c.465.155.7.293.717.423.008.06-.031.119-.117.176A1.891,1.891,0,0,1,734.4,39.2Zm58.4-2.5a7.35,7.35,0,0,1-2.6-.4,3.958,3.958,0,0,1-1.8-1.1.4.4,0,0,1-.2-.4c.1-.3.687-.3,1.5-.3.31.052.618.076.944.1h.015c.3.024.609.049.941.1l1.9.2c.958.319,1.294.627,1.2,1.1,0,.1,0,.4-.2.4A4.623,4.623,0,0,1,792.8,36.7Zm-86.1-.1h0c-.292-.125-.437-.238-.419-.325.023-.113.315-.175.82-.175l.4.3Zm5.151-1.273a.346.346,0,0,1-.151-.027l-.4-.4a2.1,2.1,0,0,1,.778-.205c.281,0,.423.136.423.405C712.5,35.178,712.113,35.327,711.852,35.327ZM722.479,33.8a6.79,6.79,0,0,1-1.18-.1,8.534,8.534,0,0,1-1.7-.4c-.337-.112-.5-.21-.5-.3a.3.3,0,0,1,0-.4,1.156,1.156,0,0,0,.09-.108l0,0a.92.92,0,0,1,.306-.287,1.207,1.207,0,0,1,.628-.181A1.7,1.7,0,0,1,721,32.3c.4.2.895.4,1.378.591l.022.009a1.9,1.9,0,0,1,.8.2,1,1,0,0,1,.5.4C723.7,33.682,723.209,33.8,722.479,33.8Zm-64.708-.4a.438.438,0,0,1-.471-.3h.006a.923.923,0,0,0,.258-.059,1.058,1.058,0,0,1,.305-.067A.286.286,0,0,1,658,33c.194,0,.3.287.3.3A1.729,1.729,0,0,1,657.771,33.4Zm94.916-.563c-.387,0-.82-.014-1.286-.042-1.609-.2-3.316-.4-4.9-.5a13.447,13.447,0,0,0-2,.1c-.246.017-.457.025-.645.025-.582,0-.912-.082-1.039-.258a.5.5,0,0,1-.016-.467c0-.2.2-.3.4-.4a2.011,2.011,0,0,1,.9-.2h1a11.742,11.742,0,0,1,1.766.166l.215.031.019,0a13.461,13.461,0,0,0,4.9,0,1.892,1.892,0,0,1,.8.2,1.923,1.923,0,0,1,.9.5.9.9,0,0,1,.3.7C754,32.77,753.549,32.841,752.687,32.841Zm-65.171-1.416A20.438,20.438,0,0,1,682.9,30.9c-.1,0-.2-.1-.3-.2a.569.569,0,0,0-.112-.085c-.053-.033-.091-.056-.091-.118a.449.449,0,0,1,0-.5,1.2,1.2,0,0,0,.093-.112.924.924,0,0,1,.307-.288,1.851,1.851,0,0,1,.7-.2,2.779,2.779,0,0,0,.3-.022,2.757,2.757,0,0,1,.3-.022.944.944,0,0,1,.3.044c.462.046.917.071,1.357.094.5.027.964.052,1.343.106.612.153,1.1.246,1.529.328L689,30a1.63,1.63,0,0,1,.6.3c.1.2.2.4.1.5,0,.1,0,.2-.1.2l-.2.2c-.1.1-.2.1-.4.1a1.1,1.1,0,0,0-.5.1C688.178,31.417,687.847,31.426,687.516,31.426ZM595.2,29.8a32.727,32.727,0,0,1-3.307-.383l-.016,0c-.3-.047-.565-.088-.777-.114-1.18-.227-2.276-.353-3.243-.465A21.418,21.418,0,0,1,584.6,28.3a3.288,3.288,0,0,1-.847-.339,2.513,2.513,0,0,0-1.295-.371c-.082,0-.169,0-.258.011a6.482,6.482,0,0,0-1,.1H581.2a6.469,6.469,0,0,1-1,.1,2.763,2.763,0,0,1-.447-.05,2.779,2.779,0,0,0-.453-.05,1.451,1.451,0,0,1-.7-.2.539.539,0,0,1-.3-.4,1.178,1.178,0,0,1,.6-.6,2.773,2.773,0,0,1,.877-.229c.128-.019.273-.041.424-.071a3.423,3.423,0,0,0,1,.1l.138.02.094.014a11.762,11.762,0,0,0,1.768.166,10.627,10.627,0,0,1,3.4.9,6.472,6.472,0,0,0,2.1.6,13.824,13.824,0,0,0,1.7.141,5.612,5.612,0,0,0,.7-.041,20.738,20.738,0,0,1,3.141-.24,18.8,18.8,0,0,1,4.558.54c.3.1.6.2.6.3s-.3.3-.6.4a8.273,8.273,0,0,1-1.7.5A12.283,12.283,0,0,1,595.2,29.8Zm-56.4-4.2a2.782,2.782,0,0,1-.9-.1,1.632,1.632,0,0,1-.6-.3v-.3a2.2,2.2,0,0,1,.8-.1,2.789,2.789,0,0,1,.9.1,4.917,4.917,0,0,1,.692.3l.008,0a.146.146,0,0,1,.051.161C539.691,25.508,539.326,25.6,538.8,25.6Zm-22.213-.872a.12.12,0,0,1-.088-.028c-.292-.125-.438-.238-.42-.325.023-.113.314-.175.819-.175l.4.3c-.073.024-.154.055-.232.085l-.008,0A1.708,1.708,0,0,1,516.588,24.727ZM482.9,23.537a5.471,5.471,0,0,1-.6-.037c-.095-.032-.191-.054-.276-.073a1.018,1.018,0,0,1-.524-.227c-.3-.1-.3-.3-.3-.3h0l.005,0a2.929,2.929,0,0,1,.895-.2,2.393,2.393,0,0,1,.9.2,1.3,1.3,0,0,0,.2.074c.153.046.3.089.3.227a.17.17,0,0,1,.029.177C483.473,23.482,483.254,23.537,482.9,23.537Zm6.8-.237h0c-.26-.087-.4-.176-.385-.25.015-.094.271-.15.685-.15l.3.3C490.192,23.2,489.705,23.3,489.7,23.3ZM61.127,23.238A1.692,1.692,0,0,1,60.1,22.9a2.192,2.192,0,0,1-.5-.4,1.481,1.481,0,0,1-.4-1.5l.293-.585L60.2,19a6.846,6.846,0,0,0,.45-.531,10.209,10.209,0,0,1,.75-.869.523.523,0,0,1,.151-.1.536.536,0,0,0,.15-.1.714.714,0,0,0,.168-.037A1.2,1.2,0,0,1,62.2,17.3a.864.864,0,0,1,.6.2c.307.205.3.305.2.5-.049.1-.1.2-.147.305a5.7,5.7,0,0,1-.554.994,2.3,2.3,0,0,0,0,3.1c.082.164.03.259-.048.4l0,.006c-.016.029-.032.059-.049.092l-.006,0a4.717,4.717,0,0,1-.695.3A1.9,1.9,0,0,1,61.127,23.238ZM241.9,19.6h0l-.7-.2.6-.2.1.4Zm14.611-.072a.161.161,0,0,1-.111-.028l-.3-.3a1.428,1.428,0,0,1,.6-.175.351.351,0,0,1,.4.375l-.011,0A2.441,2.441,0,0,1,256.511,19.528ZM262.1,19.4a2.907,2.907,0,0,1-.89-.2l-.01,0a1,1,0,0,1-.5-.4,2.921,2.921,0,0,1,.449-.1,2.941,2.941,0,0,0,.451-.1,3.771,3.771,0,0,1,1,.1,1.637,1.637,0,0,1,.6.3.173.173,0,0,1,.029.182C263.152,19.327,262.772,19.4,262.1,19.4Zm-14.1,0h0c-.255-.085-.39-.172-.378-.245.016-.1.3-.156.777-.156l.3.3A2.24,2.24,0,0,1,248,19.4Zm-42.6-.3a2.792,2.792,0,0,1-.9-.1,4.921,4.921,0,0,1-.694-.3l-.006,0v-.2a.342.342,0,0,1,.2-.1,2.779,2.779,0,0,1,.9-.1,2.913,2.913,0,0,1,.9.2c.383.128.584.26.565.373C206.343,19.015,205.982,19.1,205.4,19.1Zm-24.335-1.168a.419.419,0,0,1-.464-.331h.008a1.89,1.89,0,0,0,.337-.048,1.993,1.993,0,0,1,.354-.051c.19,0,.379.269.4.3A2.1,2.1,0,0,1,181.065,17.931ZM31.686,17.738A10.348,10.348,0,0,1,29,17.4c-.065-.032-.141-.065-.215-.1l-.007,0a1.446,1.446,0,0,1-.377-.2c.386-.193.876-.39,1.349-.58l.05-.02a5.885,5.885,0,0,1,2.011-.337,6.228,6.228,0,0,1,.689.038c.689.1,1.4.2,1.4.5a.758.758,0,0,0-.1.4c0,.1-.1.2-.2.3a.774.774,0,0,1-.4.2,1.252,1.252,0,0,0-.206.037,2,2,0,0,1-.394.063C32.3,17.725,31.994,17.738,31.686,17.738ZM263.9,16.7a3.391,3.391,0,0,1-1-.1,1.278,1.278,0,0,1-.6-.4,1.826,1.826,0,0,1,.7-.2,2.782,2.782,0,0,1,.9.1,1.891,1.891,0,0,1,.8.2c.16.1.232.175.216.235C264.885,16.646,264.552,16.7,263.9,16.7Zm-109.5-.2h0l-.5-.3h.8l-.3.3ZM166,14.2h-.9a4.742,4.742,0,0,1-.7-.3c-.143-.071-.213-.158-.2-.245.027-.16.333-.3.8-.354a10.99,10.99,0,0,1,2.7-.4,2.785,2.785,0,0,1,.9.1,4.968,4.968,0,0,1,.7.3c.121.031.184.081.181.142-.006.121-.281.288-.779.359a25.031,25.031,0,0,1-2.7.4Zm15.8-.2H181l.2-.3.6.3Zm-31.9-.8c-.1,0-.3-.2-.4-.3a3.715,3.715,0,0,0,.695-.1c.3.086.471.178.461.252C150.646,13.145,150.363,13.2,149.9,13.2Zm-16.47-2.84c-.465,0-.966-.02-1.53-.06l-1.7-.2L129,9.9a13.137,13.137,0,0,0-1.987-.149A11.706,11.706,0,0,0,125.1,9.9a13.2,13.2,0,0,1-2,.15,13.2,13.2,0,0,1-2-.15l-3.9-.5a5.794,5.794,0,0,0-.832-.066A4.118,4.118,0,0,0,115.2,9.5a13.353,13.353,0,0,1-2.45.225A13.342,13.342,0,0,1,110.3,9.5a4.963,4.963,0,0,1-.7-.3c-.061-.06-.089-.124-.072-.164A.068.068,0,0,1,109.6,9c0-.071.05-.091.15-.133.041-.017.092-.038.15-.067a6.487,6.487,0,0,1,2.1-.6,9.653,9.653,0,0,1,2.4,0l3,.3a4.323,4.323,0,0,0,.613.042A8.467,8.467,0,0,0,119.4,8.4l3.7-.8a7.6,7.6,0,0,1,1.5-.1,2.842,2.842,0,0,1,1.293.4l.007,0c.166.066.323.145.475.221A3.51,3.51,0,0,0,127.4,8.5a11.142,11.142,0,0,0,1.9-.2,6.712,6.712,0,0,1,2,0c.31.051.642.076.995.1.329.024.667.049,1.005.1a10.059,10.059,0,0,0,1.524.11A16.191,16.191,0,0,0,137.3,8.4c.5-.05,1-.075,1.5-.075s1,.025,1.5.075,1,.075,1.5.075,1-.025,1.5-.075a13.82,13.82,0,0,1,1.7-.141,5.626,5.626,0,0,1,.7.041,8.472,8.472,0,0,1,2.3.3,1.635,1.635,0,0,1,.6.3.549.549,0,0,1,.125.2.191.191,0,0,1-.025.2.313.313,0,0,1,.1.2c0,.062-.038.085-.091.118a.559.559,0,0,0-.109.082c-.1.1-.2.1-.4.1a.718.718,0,0,0-.168.037,1.21,1.21,0,0,1-.332.063,3.064,3.064,0,0,1-1,.1c-1.6-.1-3.33-.3-5-.5-.517-.04-1.007-.06-1.456-.06a10.19,10.19,0,0,0-2.444.26c-.265.044-.527.107-.8.174l-.009,0c-.346.083-.7.169-1.088.224A10.159,10.159,0,0,1,133.431,10.36Zm30.249-.194a1.187,1.187,0,0,1-.38-.066c-.539-.067-.833-.176-.872-.324-.022-.081.036-.174.172-.275a2.9,2.9,0,0,1,.9-.2h.5a.9.9,0,0,1,.5.1c.1,0,.3.1.3.2a.558.558,0,0,1,.082.109c.033.053.056.091.118.091,0,.1-.4.2-.7.2A1.386,1.386,0,0,1,163.68,10.165ZM177.3,9.9h-.9a1.888,1.888,0,0,1-.8-.2,1.74,1.74,0,0,1-.5-.4l.014-.006A2.925,2.925,0,0,1,176,9.1h.9a1.884,1.884,0,0,1,.8.2c.337.193.467.3.45.386C178.126,9.8,177.807,9.849,177.3,9.9Zm-5.6,0h-.9l.3-.3.6.3ZM153.65,9.875A4.941,4.941,0,0,1,152.3,9.7a.781.781,0,0,1-.4-.4,3.12,3.12,0,0,1,.4-.1,3.167,3.167,0,0,0,.4-.1h.8a1.451,1.451,0,0,1,.7.2c.195.1.488.292.5.3C154.581,9.839,153.991,9.875,153.65,9.875Zm5-.4A.515.515,0,0,1,158.1,9.1h.007a1.365,1.365,0,0,0,.364-.068,1.167,1.167,0,0,1,.3-.059A.3.3,0,0,1,158.9,9c.2,0,.4.3.4.3A1.481,1.481,0,0,1,158.655,9.475ZM78.4,8.3a9.654,9.654,0,0,1-3.5-.5,2.209,2.209,0,0,1-.5-.3l.6-.3a8.662,8.662,0,0,1,2.25-.517c.664,0,1.029.312,1.827,1l.023.02c.164.164.224.29.185.385C79.225,8.23,78.936,8.3,78.4,8.3ZM92.5,6.2h-.9a1.737,1.737,0,0,1-.623-.138l-.009,0C90.915,6.04,90.859,6.02,90.8,6a2.191,2.191,0,0,1-.5-.3,2,2,0,0,1,.9-.2h1a1.889,1.889,0,0,1,.8.2c.2.1.4.2.4.4h-.012a2.576,2.576,0,0,0-.505.054A2.039,2.039,0,0,1,92.5,6.2Zm17.7-.7h0a4.931,4.931,0,0,0-1.1-.1c-.519-.074-.955-.149-1.032-.321A.181.181,0,0,1,108.1,4.9a.857.857,0,0,1,.6-.3l1.8-.3a1.54,1.54,0,0,0,.38.092c.165.027.32.052.32.107a.766.766,0,0,1,.2.4c0,.1-.2.3-.4.4a1.894,1.894,0,0,1-.8.2ZM77.5,5.4A2.52,2.52,0,0,1,76.2,5c-.207-.083-.321-.187-.337-.31-.019-.144.094-.309.337-.49a3.132,3.132,0,0,1,.6-.4,2.952,2.952,0,0,1,.9-.2h1l3.2.4h-.2a2.736,2.736,0,0,1,.449.05,2.753,2.753,0,0,0,.451.05.923.923,0,0,1,.6.4.175.175,0,0,1-.028.165A1.861,1.861,0,0,1,81.9,5a13.627,13.627,0,0,0-2.9.3A7.617,7.617,0,0,1,77.5,5.4Z" transform="translate(119 35)" fill="#fff"/></g></svg>